<svg viewBox="40 40 220 220"><g mask="url(#a)"><g clip-path="path('M 45 45 h210 v210 h-210z')"><g clip-path="path('M 10.5200 3.0000 L 89.4800 3.0000 C 93.2400 3.0000 97.0000 6.7600 97.0000 10.5200 L 97.0000 89.4800 C 97.0000 93.2400 93.2400 97.0000 89.4800 97.0000 L 10.5200 97.0000 C 6.7600 97.0000 3.0000 93.2400 3.0000 89.4800 L 3.0000 10.5200 C 3.0000 6.7600 6.7600 3.0000 10.5200 3.0000 Z ') view-box"><path fill="#E06300" d="M0 0h100L83.333 50H16.667Z"/><path fill="#0078BB" d="M100 0v100L50 83.333V50Z"/><path fill="#00A679" d="M100 100H0l16.667-50H50Z"/><path fill="#F2A700" d="M0 100V0l50 50Z"/></g><g clip-path="path('M 103.0000 89.4800 L 103.0000 10.5200 C 103.0000 6.7600 106.7600 3.0000 110.5200 3.0000 L 189.4800 3.0000 C 193.2400 3.0000 197.0000 6.7600 197.0000 10.5200 L 197.0000 89.4800 C 197.0000 93.2400 193.2400 97.0000 189.4800 97.0000 L 110.5200 97.0000 C 106.7600 97.0000 103.0000 93.2400 103.0000 89.4800 Z ') view-box"><path fill="#0078BB" d="M100 100V0l50 16.667v66.666Z"/><path fill="#00A679" d="M100 0h100l-16.667 50H150Z"/><path fill="#00A679" d="M200 0v100l-50-16.667V50Z"/><path fill="#E06300" d="M200 100H100l50-50Z"/></g><g clip-path="path('M 10.5200 103.0000 L 89.4800 103.0000 C 93.2400 103.0000 97.0000 106.7600 97.0000 110.5200 L 97.0000 189.4800 C 97.0000 193.2400 93.2400 197.0000 89.4800 197.0000 L 10.5200 197.0000 C 6.7600 197.0000 3.0000 193.2400 3.0000 189.4800 L 3.0000 110.5200 C 3.0000 106.7600 6.7600 103.0000 10.5200 103.0000 Z ') view-box"><path fill="#00A679" d="M0 100h100l-16.667 50H16.667Z"/><path fill="#0078BB" d="M100 100v100l-50-16.667V150Z"/><path fill="#F2A700" d="M100 200H0l16.667-50H50Z"/><path fill="#00A679" d="M0 200V100l50 50Z"/></g><g clip-path="path('M 10.5200 203.0000 L 89.4800 203.0000 C 93.2400 203.0000 97.0000 206.7600 97.0000 210.5200 L 97.0000 289.4800 C 97.0000 293.2400 93.2400 297.0000 89.4800 297.0000 L 10.5200 297.0000 C 6.7600 297.0000 3.0000 293.2400 3.0000 289.4800 L 3.0000 210.5200 C 3.0000 206.7600 6.7600 203.0000 10.5200 203.0000 Z ') view-box"><path fill="#F2A700" d="M0 200h100l-16.667 50H16.667Z"/><path fill="#00A679" d="M100 200v100l-50-16.667V250Z"/><path fill="#0078BB" d="M100 300H0l16.667-50H50Z"/><path fill="#F2A700" d="M0 300V200l50 50Z"/></g><g clip-path="path('M 103.0000 289.4800 L 103.0000 210.5200 C 103.0000 206.7600 106.7600 203.0000 110.5200 203.0000 L 189.4800 203.0000 C 193.2400 203.0000 197.0000 206.7600 197.0000 210.5200 L 197.0000 289.4800 C 197.0000 293.2400 193.2400 297.0000 189.4800 297.0000 L 110.5200 297.0000 C 106.7600 297.0000 103.0000 293.2400 103.0000 289.4800 Z ') view-box"><path fill="#00A679" d="M100 300V200l50 16.667v66.666Z"/><path fill="#E06300" d="M100 200h100l-16.667 50H150Z"/><path fill="#F2A700" d="M200 200v100l-50-16.667V250Z"/><path fill="#F2A700" d="M200 300H100l50-50Z"/></g><g clip-path="path('M 203.0000 289.4800 L 203.0000 210.5200 C 203.0000 206.7600 206.7600 203.0000 210.5200 203.0000 L 289.4800 203.0000 C 293.2400 203.0000 297.0000 206.7600 297.0000 210.5200 L 297.0000 289.4800 C 297.0000 293.2400 293.2400 297.0000 289.4800 297.0000 L 210.5200 297.0000 C 206.7600 297.0000 203.0000 293.2400 203.0000 289.4800 Z ') view-box"><path fill="#F2A700" d="M200 300V200l50 16.667v66.666Z"/><path fill="#E06300" d="M200 200h100l-16.667 50H250Z"/><path fill="#00A679" d="M300 200v100l-50-16.667V250Z"/><path fill="#0078BB" d="M300 300H200l50-50Z"/></g><g clip-path="path('M 289.4800 197.0000 L 210.5200 197.0000 C 206.7600 197.0000 203.0000 193.2400 203.0000 189.4800 L 203.0000 110.5200 C 203.0000 106.7600 206.7600 103.0000 210.5200 103.0000 L 289.4800 103.0000 C 293.2400 103.0000 297.0000 106.7600 297.0000 110.5200 L 297.0000 189.4800 C 297.0000 193.2400 293.2400 197.0000 289.4800 197.0000 Z ') view-box"><path fill="#E06300" d="M300 200H200l16.667-50h66.666Z"/><path fill="#0078BB" d="M200 200V100l50 16.667V150Z"/><path fill="#0078BB" d="M200 100h100l-16.667 50H250Z"/><path fill="#F2A700" d="M300 100v100l-50-50Z"/></g><g clip-path="path('M 203.0000 89.4800 L 203.0000 10.5200 C 203.0000 6.7600 206.7600 3.0000 210.5200 3.0000 L 289.4800 3.0000 C 293.2400 3.0000 297.0000 6.7600 297.0000 10.5200 L 297.0000 89.4800 C 297.0000 93.2400 293.2400 97.0000 289.4800 97.0000 L 210.5200 97.0000 C 206.7600 97.0000 203.0000 93.2400 203.0000 89.4800 Z ') view-box"><path fill="#00A679" d="M200 100V0l50 16.667v66.666Z"/><path fill="#00A679" d="M200 0h100l-16.667 50H250Z"/><path fill="#F2A700" d="M300 0v100l-50-16.667V50Z"/><path fill="#0078BB" d="M300 100H200l50-50Z"/></g></g><path fill="#fff" d="M-10-10h320v320H-10zm120 210h80c5 0 10-5 10-10v-80c0-5-5-10-10-10h-80c-5 0-10 5-10 10v80c0 5 5 10 10 10Z" opacity=".8"/><path fill="transparent" stroke="#fff" stroke-width="20" d="M110 200h80c5 0 10-5 10-10v-80c0-5-5-10-10-10h-80c-5 0-10 5-10 10v80c0 5 5 10 10 10Z"/><path fill="transparent" stroke="#9acd32" stroke-width="10" d="M110 200h80c5 0 10-5 10-10v-80c0-5-5-10-10-10h-80c-5 0-10 5-10 10v80c0 5 5 10 10 10Z"/></g><defs><linearGradient id="c" x1="0" x2="0" y1="0" y2="1"><stop offset="4%"/><stop offset="10%" stop-opacity="0"/><stop offset="90%" stop-opacity="0"/><stop offset="96%"/></linearGradient><linearGradient id="b" x1="0" x2="1" y1="0" y2="0"><stop offset="4%"/><stop offset="10%" stop-color="#fff"/><stop offset="90%" stop-color="#fff"/><stop offset="96%"/></linearGradient></defs><mask id="a"><path d="M0 0h300v300H0z"/><path fill="url(#b)" d="M40 40h220v220H40z"/><path fill="url(#c)" d="M40 40h220v220H40z"/></mask></svg>