<?xml version="1.0" encoding="UTF-8" standalone="no"?>
<!-- Created with Inkscape (http://www.inkscape.org/) -->

<svg
   width="1024"
   height="500"
   viewBox="0 0 1024 500"
   version="1.1"
   id="svg5"
   xml:space="preserve"
   inkscape:version="1.4.2 (ebf0e940d0, 2025-05-08)"
   sodipodi:docname="featureGraphic.svg"
   xmlns:inkscape="http://www.inkscape.org/namespaces/inkscape"
   xmlns:sodipodi="http://sodipodi.sourceforge.net/DTD/sodipodi-0.dtd"
   xmlns="http://www.w3.org/2000/svg"
   xmlns:svg="http://www.w3.org/2000/svg"><sodipodi:namedview
     id="namedview7"
     pagecolor="#ffffff"
     bordercolor="#666666"
     borderopacity="1.0"
     inkscape:showpageshadow="2"
     inkscape:pageopacity="0.0"
     inkscape:pagecheckerboard="0"
     inkscape:deskcolor="#d1d1d1"
     inkscape:document-units="mm"
     showgrid="false"
     inkscape:zoom="0.6236289"
     inkscape:cx="107.43569"
     inkscape:cy="634.99302"
     inkscape:window-width="2560"
     inkscape:window-height="1410"
     inkscape:window-x="1920"
     inkscape:window-y="30"
     inkscape:window-maximized="1"
     inkscape:current-layer="layer1" /><defs
     id="defs2" /><g
     inkscape:label="Layer 1"
     inkscape:groupmode="layer"
     id="layer1"><g
       id="g6883"
       transform="matrix(-2.9918675,1.7273555,-1.7273555,-2.9918675,907.63577,206.33939)"
       style="display:inline"><g
         class="svg-grid"
         id="g2878"
         transform="matrix(0.33728827,0.19473347,-0.19473347,0.33728827,121.00635,-62.16497)"><g
           class="svg-tiles"
           id="g2863"
           transform="rotate(90,10.331385,-39.746125)"><g
             class="svg-tile"
             clip-path="url(#tile421)"
             id="g1706"><clipPath
               id="tile421"><path
                 d="M 10.52,3 H 89.48 C 93.24,3 97,6.76 97,10.52 V 89.48 C 97,93.24 93.24,97 89.48,97 H 10.52 C 6.76,97 3,93.24 3,89.48 V 10.52 C 3,6.76 6.76,3 10.52,3 Z"
                 id="path1695" /></clipPath><path
               fill="#00a679"
               d="M 0,0 H 100 L 83.3333,50 H 50 16.6667 Z"
               id="path1698" /><path
               fill="#00a679"
               d="M 100,0 V 100 L 50,83.3333 V 50 Z"
               id="path1700" /><path
               fill="#00a679"
               d="M 100,100 H 0 L 16.6667,50 H 50 Z"
               id="path1702" /><path
               fill="#0078bb"
               d="M 0,100 V 0 l 50,50 z"
               id="path1704" /></g><g
             class="svg-tile"
             clip-path="url(#tile422)"
             id="g1717"><clipPath
               id="tile422"><path
                 d="m 109.2082,8.7805 65.1861,37.6352 c 3.1041,1.7921 3.1041,5.3765 0,7.1686 L 109.2082,91.2195 C 106.1041,93.0116 103,91.2195 103,87.6352 V 12.3648 c 0,-3.5843 3.1041,-5.3764 6.2082,-3.5843 z"
                 id="path1708" /></clipPath><path
               fill="#f2a700"
               d="M 100,0 186.6025,50 138.49,66.6667 128.8675,50 h -19.245 z"
               id="path1711" /><path
               fill="#f2a700"
               d="M 186.6025,50 100,100 109.6225,50 h 19.245 z"
               id="path1713" /><path
               fill="#00a679"
               d="M 100,100 V 0 l 28.8675,50 z"
               id="path1715" /></g><g
             class="svg-tile"
             clip-path="url(#tile423)"
             id="g1728"><clipPath
               id="tile423"><path
                 d="M -74.3943,46.4157 -9.2082,8.7805 C -6.1041,6.9884 -3,8.7805 -3,12.3648 v 75.2704 c 0,3.5843 -3.1041,5.3764 -6.2082,3.5843 L -74.3943,53.5843 c -3.1041,-1.7921 -3.1041,-5.3765 0,-7.1686 z"
                 id="path1719" /></clipPath><path
               fill="#e06300"
               d="M -86.6025,50 0,0 -9.6225,50 h -19.245 L -38.49,66.6667 Z"
               id="path1722" /><path
               fill="#0078bb"
               d="M 0,0 V 100 L -38.49,66.6667 -28.8675,50 Z"
               id="path1724" /><path
               fill="#00a679"
               d="M 0,100 -86.6025,50 h 57.735 z"
               id="path1726" /></g><g
             class="svg-tile"
             clip-path="url(#tile424)"
             id="g1739"><clipPath
               id="tile424"><path
                 d="M 53.5843,-74.3943 91.2195,-9.2082 C 93.0116,-6.1041 91.2195,-3 87.6352,-3 H 12.3648 C 8.7805,-3 6.9884,-6.1041 8.7805,-9.2082 l 37.6352,-65.1861 c 1.7921,-3.1041 5.3765,-3.1041 7.1686,0 z"
                 id="path1730" /></clipPath><path
               fill="#f2a700"
               d="M 50,-86.6025 100,0 50,-9.6225 v -19.245 L 33.3333,-38.49 Z"
               id="path1733" /><path
               fill="#00a679"
               d="M 100,0 H 0 L 33.3333,-38.49 50,-28.8675 Z"
               id="path1735" /><path
               fill="#0078bb"
               d="m 0,0 50,-86.6025 v 57.735 z"
               id="path1737" /></g><g
             class="svg-tile"
             clip-path="url(#tile425)"
             id="g1750"><clipPath
               id="tile425"><path
                 d="m 12.3648,103 h 75.2704 c 3.5843,0 5.3764,3.1041 3.5843,6.2082 l -37.6352,65.1861 c -1.7921,3.1041 -5.3765,3.1041 -7.1686,0 L 8.7805,109.2082 C 6.9884,106.1041 8.7805,103 12.3648,103 Z"
                 id="path1741" /></clipPath><path
               fill="#00a679"
               d="M 0,100 H 100 L 66.6667,138.49 50,128.8675 33.3333,138.49 Z"
               id="path1744" /><path
               fill="#00a679"
               d="M 100,100 50,186.6025 33.3333,138.49 50,128.8675 Z"
               id="path1746" /><path
               fill="#00a679"
               d="M 50,186.6025 0,100 50,128.8675 Z"
               id="path1748" /></g><g
             class="svg-tile"
             clip-path="url(#tile426)"
             id="g1761"><clipPath
               id="tile426"><path
                 d="m 62.3648,-83.6025 h 75.2704 c 3.5843,0 5.3764,3.1041 3.5843,6.2082 l -37.6352,65.1861 c -1.7921,3.1041 -5.3765,3.1041 -7.1686,0 L 58.7805,-77.3943 c -1.7921,-3.1041 0,-6.2082 3.5843,-6.2082 z"
                 id="path1752" /></clipPath><path
               fill="#00a679"
               d="m 50,-86.6025 h 100 l -33.3333,38.49 L 100,-57.735 83.3333,-48.1125 Z"
               id="path1755" /><path
               fill="#0078bb"
               d="M 150,-86.6025 100,0 83.3333,-48.1125 100,-57.735 Z"
               id="path1757" /><path
               fill="#f2a700"
               d="M 100,0 50,-86.6025 100,-57.735 Z"
               id="path1759" /></g><g
             class="svg-tile"
             clip-path="url(#tile427)"
             id="g1772"><clipPath
               id="tile427"><path
                 d="m 112.2082,96.4157 65.1861,-37.6352 c 3.1041,-1.7921 6.2082,0 6.2082,3.5843 v 75.2704 c 0,3.5843 -3.1041,5.3764 -6.2082,3.5843 l -65.1861,-37.6352 c -3.1041,-1.7921 -3.1041,-5.3765 0,-7.1686 z"
                 id="path1763" /></clipPath><path
               fill="#f2a700"
               d="m 100,100 86.6025,-50 -9.6225,50 h -19.245 l -9.6225,16.6667 z"
               id="path1766" /><path
               fill="#f2a700"
               d="M 186.6025,50 V 150 L 148.1125,116.6667 157.735,100 Z"
               id="path1768" /><path
               fill="#e06300"
               d="M 186.6025,150 100,100 h 57.735 z"
               id="path1770" /></g><g
             class="svg-tile"
             clip-path="url(#tile428)"
             id="g1783"><clipPath
               id="tile428"><path
                 d="m 3.5843,112.2082 37.6352,65.1861 c 1.7921,3.1041 0,6.2082 -3.5843,6.2082 h -75.2704 c -3.5843,0 -5.3764,-3.1041 -3.5843,-6.2082 l 37.6352,-65.1861 c 1.7921,-3.1041 5.3765,-3.1041 7.1686,0 z"
                 id="path1774" /></clipPath><path
               fill="#00a679"
               d="M 0,100 50,186.6025 0,176.98 v -19.245 l -16.6667,-9.6225 z"
               id="path1777" /><path
               fill="#e06300"
               d="M 50,186.6025 H -50 l 33.3333,-38.49 L 0,157.735 Z"
               id="path1779" /><path
               fill="#f2a700"
               d="M -50,186.6025 0,100 v 57.735 z"
               id="path1781" /></g><g
             class="svg-tile"
             clip-path="url(#tile429)"
             id="g1796"><clipPath
               id="tile429"><path
                 d="m 157.6106,-78.7445 68.3814,39.48 c 3.2562,1.88 4.6325,7.0163 2.7525,10.2725 l -39.48,68.3814 c -1.88,3.2562 -7.0163,4.6325 -10.2725,2.7525 l -68.3814,-39.48 c -3.2562,-1.88 -4.6325,-7.0163 -2.7525,-10.2725 l 39.48,-68.3814 c 1.88,-3.2562 7.0163,-4.6325 10.2725,-2.7525 z"
                 id="path1785" /></clipPath><path
               fill="#f2a700"
               d="m 150,-86.6025 86.6025,50 -39.4337,34.9679 -28.8675,-16.6667 -28.8675,-16.6666 z"
               id="path1788" /><path
               fill="#f2a700"
               d="M 236.6025,-36.6025 186.6025,50 151.6346,10.5662 168.3013,-18.3013 Z"
               id="path1790" /><path
               fill="#f2a700"
               d="M 186.6025,50 100,0 l 39.4338,-34.9679 28.8675,16.6666 z"
               id="path1792" /><path
               fill="#0078bb"
               d="m 100,0 50,-86.6025 18.3013,68.3012 z"
               id="path1794" /></g><g
             class="svg-tile"
             clip-path="url(#tile430)"
             id="g1809"><clipPath
               id="tile430"><path
                 d="m -28.992,-128.7445 68.3814,39.48 c 3.2562,1.88 4.6325,7.0163 2.7525,10.2725 l -39.48,68.3814 c -1.88,3.2562 -7.0163,4.6325 -10.2725,2.7525 l -68.3814,-39.48 c -3.2562,-1.88 -4.6325,-7.0163 -2.7525,-10.2725 l 39.48,-68.3814 c 1.88,-3.2562 7.0163,-4.6325 10.2725,-2.7525 z"
                 id="path1798" /></clipPath><path
               fill="#0078bb"
               d="m -36.6025,-136.6025 86.6025,50 -39.4338,34.9679 -28.8675,-16.6667 -28.8675,-16.6666 z"
               id="path1801" /><path
               fill="#0078bb"
               d="M 50,-86.6025 0,0 -34.9679,-39.4338 -18.3013,-68.3013 Z"
               id="path1803" /><path
               fill="#e06300"
               d="m 0,0 -86.6025,-50 39.4337,-34.9679 28.8675,16.6666 z"
               id="path1805" /><path
               fill="#e06300"
               d="m -86.6025,-50 50,-86.6025 18.3012,68.3012 z"
               id="path1807" /></g><g
             class="svg-tile"
             clip-path="url(#tile431)"
             id="g1822"><clipPath
               id="tile431"><path
                 d="m -78.992,57.8581 68.3814,39.48 c 3.2562,1.88 4.6325,7.0163 2.7525,10.2725 l -39.48,68.3814 c -1.88,3.2562 -7.0163,4.6325 -10.2725,2.7525 l -68.3814,-39.48 c -3.2562,-1.88 -4.6325,-7.0163 -2.7525,-10.2725 l 39.48,-68.3814 c 1.88,-3.2562 7.0163,-4.6325 10.2725,-2.7525 z"
                 id="path1811" /></clipPath><path
               fill="#00a679"
               d="M -86.6025,50 0,100 -39.4338,134.9679 -68.3013,118.3013 -97.1688,101.6346 Z"
               id="path1814" /><path
               fill="#f2a700"
               d="m 0,100 -50,86.6025 -34.9679,-39.4337 16.6666,-28.8675 z"
               id="path1816" /><path
               fill="#0078bb"
               d="m -50,186.6025 -86.6025,-50 39.4337,-34.9679 28.8675,16.6667 z"
               id="path1818" /><path
               fill="#00a679"
               d="m -136.6025,136.6025 50,-86.6025 18.3012,68.3013 z"
               id="path1820" /></g><g
             class="svg-tile"
             clip-path="url(#tile432)"
             id="g1833"><clipPath
               id="tile432"><path
                 d="m -77.3943,-41.2195 65.1861,37.6352 c 3.1041,1.7921 3.1041,5.3765 0,7.1686 l -65.1861,37.6352 c -3.1041,1.7921 -6.2082,0 -6.2082,-3.5843 v -75.2704 c 0,-3.5843 3.1041,-5.3764 6.2082,-3.5843 z"
                 id="path1824" /></clipPath><path
               fill="#e06300"
               d="M -86.6025,-50 0,0 -48.1125,16.6667 -57.735,0 H -76.98 Z"
               id="path1827" /><path
               fill="#e06300"
               d="M 0,0 -86.6025,50 -76.98,0 h 19.245 z"
               id="path1829" /><path
               fill="#00a679"
               d="M -86.6025,50 V -50 L -57.735,0 Z"
               id="path1831" /></g><g
             class="svg-tile"
             clip-path="url(#tile433)"
             id="g1846"><clipPath
               id="tile433"><path
                 d="m 107.6106,107.8581 68.3814,39.48 c 3.2562,1.88 4.6325,7.0163 2.7525,10.2725 l -39.48,68.3814 c -1.88,3.2562 -7.0163,4.6325 -10.2725,2.7525 l -68.3814,-39.48 c -3.2562,-1.88 -4.6325,-7.0163 -2.7525,-10.2725 l 39.48,-68.3814 c 1.88,-3.2562 7.0163,-4.6325 10.2725,-2.7525 z"
                 id="path1835" /></clipPath><path
               fill="#e06300"
               d="m 100,100 86.6025,50 -39.4337,34.9679 -28.8675,-16.6666 -28.8675,-16.6667 z"
               id="path1838" /><path
               fill="#0078bb"
               d="m 186.6025,150 -50,86.6025 -34.9679,-39.4337 16.6667,-28.8675 z"
               id="path1840" /><path
               fill="#f2a700"
               d="m 136.6025,236.6025 -86.6025,-50 39.4338,-34.9679 28.8675,16.6667 z"
               id="path1842" /><path
               fill="#00a679"
               d="M 50,186.6025 100,100 l 18.3013,68.3013 z"
               id="path1844" /></g><g
             class="svg-tile"
             clip-path="url(#tile434)"
             id="g1859"><clipPath
               id="tile434"><path
                 d="m 197.1225,53 h 78.96 c 3.76,0 7.52,3.76 7.52,7.52 v 78.96 c 0,3.76 -3.76,7.52 -7.52,7.52 h -78.96 c -3.76,0 -7.52,-3.76 -7.52,-7.52 V 60.52 c 0,-3.76 3.76,-7.52 7.52,-7.52 z"
                 id="path1848" /></clipPath><path
               fill="#00a679"
               d="m 186.6025,50 h 100 l -16.6666,50 h -33.3334 -33.3333 z"
               id="path1851" /><path
               fill="#00a679"
               d="m 286.6025,50 v 100 l -50,-16.6667 V 100 Z"
               id="path1853" /><path
               fill="#0078bb"
               d="m 286.6025,150 h -100 l 16.6667,-50 h 33.3333 z"
               id="path1855" /><path
               fill="#f2a700"
               d="M 186.6025,150 V 50 l 50,50 z"
               id="path1857" /></g><g
             class="svg-tile"
             clip-path="url(#tile435)"
             id="g1870"><clipPath
               id="tile435"><path
                 d="m 59.2082,195.383 65.1861,37.6352 c 3.1041,1.7921 3.1041,5.3765 0,7.1686 l -65.1861,37.6353 c -3.1041,1.7921 -6.2082,0 -6.2082,-3.5843 v -75.2705 c 0,-3.5843 3.1041,-5.3764 6.2082,-3.5843 z"
                 id="path1861" /></clipPath><path
               fill="#f2a700"
               d="m 50,186.6025 86.6025,50 -48.1125,16.6667 -9.6225,-16.6667 h -19.245 z"
               id="path1864" /><path
               fill="#00a679"
               d="m 136.6025,236.6025 -86.6025,50 9.6225,-50 h 19.245 z"
               id="path1866" /><path
               fill="#f2a700"
               d="m 50,286.6025 v -100 l 28.8675,50 z"
               id="path1868" /></g><g
             class="svg-tile"
             clip-path="url(#tile436)"
             id="g1883"><clipPath
               id="tile436"><path
                 d="m 60.52,-183.6025 h 78.96 c 3.76,0 7.52,3.76 7.52,7.52 v 78.96 c 0,3.76 -3.76,7.52 -7.52,7.52 H 60.52 c -3.76,0 -7.52,-3.76 -7.52,-7.52 v -78.96 c 0,-3.76 3.76,-7.52 7.52,-7.52 z"
                 id="path1872" /></clipPath><path
               fill="#0078bb"
               d="m 50,-186.6025 h 100 l -16.6667,50 H 100 66.6667 Z"
               id="path1875" /><path
               fill="#f2a700"
               d="m 150,-186.6025 v 100 l -50,-16.6667 v -33.3333 z"
               id="path1877" /><path
               fill="#00a679"
               d="M 150,-86.6025 H 50 l 16.6667,-50 H 100 Z"
               id="path1879" /><path
               fill="#0078bb"
               d="m 50,-86.6025 v -100 l 50,50 z"
               id="path1881" /></g><g
             class="svg-tile"
             clip-path="url(#tile437)"
             id="g1894"><clipPath
               id="tile437"><path
                 d="m 190.1868,162.2082 37.6353,65.1861 c 1.7921,3.1041 0,6.2082 -3.5843,6.2082 h -75.2705 c -3.5843,0 -5.3764,-3.1041 -3.5843,-6.2082 l 37.6352,-65.1861 c 1.7921,-3.1041 5.3765,-3.1041 7.1686,0 z"
                 id="path1885" /></clipPath><path
               fill="#f2a700"
               d="m 186.6025,150 50,86.6025 -50,-9.6225 v -19.245 l -16.6666,-9.6225 z"
               id="path1888" /><path
               fill="#0078bb"
               d="m 236.6025,236.6025 h -100 l 33.3334,-38.49 16.6666,9.6225 z"
               id="path1890" /><path
               fill="#0078bb"
               d="m 136.6025,236.6025 50,-86.6025 v 57.735 z"
               id="path1892" /></g><g
             class="svg-tile"
             clip-path="url(#tile438)"
             id="g1905"><clipPath
               id="tile438"><path
                 d="m 198.9673,153 h 75.2705 c 3.5843,0 5.3764,3.1041 3.5843,6.2082 l -37.6353,65.1861 c -1.7921,3.1041 -5.3765,3.1041 -7.1686,0 L 195.383,159.2082 c -1.7921,-3.1041 0,-6.2082 3.5843,-6.2082 z"
                 id="path1896" /></clipPath><path
               fill="#0078bb"
               d="m 186.6025,150 h 100 l -33.3333,38.49 -16.6667,-9.6225 -16.6666,9.6225 z"
               id="path1899" /><path
               fill="#0078bb"
               d="m 286.6025,150 -50,86.6025 -16.6666,-48.1125 16.6666,-9.6225 z"
               id="path1901" /><path
               fill="#f2a700"
               d="m 236.6025,236.6025 -50,-86.6025 50,28.8675 z"
               id="path1903" /></g><g
             class="svg-tile"
             clip-path="url(#tile439)"
             id="g1918"><clipPath
               id="tile439"><path
                 d="m -176.0825,-47 h 78.96 c 3.76,0 7.52,3.76 7.52,7.52 v 78.96 c 0,3.76 -3.76,7.52 -7.52,7.52 h -78.96 c -3.76,0 -7.52,-3.76 -7.52,-7.52 v -78.96 c 0,-3.76 3.76,-7.52 7.52,-7.52 z"
                 id="path1907" /></clipPath><path
               fill="#0078bb"
               d="m -186.6025,-50 h 100 l -16.6667,50 h -33.3333 -33.3334 z"
               id="path1910" /><path
               fill="#00a679"
               d="M -86.6025,-50 V 50 l -50,-16.6667 V 0 Z"
               id="path1912" /><path
               fill="#f2a700"
               d="m -86.6025,50 h -100 l 16.6666,-50 h 33.3334 z"
               id="path1914" /><path
               fill="#0078bb"
               d="M -186.6025,50 V -50 l 50,50 z"
               id="path1916" /></g><g
             class="svg-tile"
             clip-path="url(#tile440)"
             id="g1931"><clipPath
               id="tile440"><path
                 d="m -39.48,189.6025 h 78.96 c 3.76,0 7.52,3.76 7.52,7.52 v 78.96 c 0,3.76 -3.76,7.52 -7.52,7.52 h -78.96 c -3.76,0 -7.52,-3.76 -7.52,-7.52 v -78.96 c 0,-3.76 3.76,-7.52 7.52,-7.52 z"
                 id="path1920" /></clipPath><path
               fill="#e06300"
               d="M -50,186.6025 H 50 l -16.6667,50 H 0 -33.3333 Z"
               id="path1923" /><path
               fill="#f2a700"
               d="m 50,186.6025 v 100 L 0,269.9359 v -33.3334 z"
               id="path1925" /><path
               fill="#00a679"
               d="M 50,286.6025 H -50 l 16.6667,-50 H 0 Z"
               id="path1927" /><path
               fill="#00a679"
               d="m -50,286.6025 v -100 l 50,50 z"
               id="path1929" /></g><g
             class="svg-tile"
             clip-path="url(#tile441)"
             id="g1942"><clipPath
               id="tile441"><path
                 d="m -127.3943,145.383 65.1861,37.6352 c 3.1041,1.7921 3.1041,5.3765 0,7.1686 l -65.1861,37.6353 c -3.1041,1.7921 -6.2082,0 -6.2082,-3.5843 v -75.2705 c 0,-3.5843 3.1041,-5.3764 6.2082,-3.5843 z"
                 id="path1933" /></clipPath><path
               fill="#0078bb"
               d="m -136.6025,136.6025 86.6025,50 -48.1125,16.6667 -9.6225,-16.6667 h -19.245 z"
               id="path1936" /><path
               fill="#0078bb"
               d="m -50,186.6025 -86.6025,50 9.6225,-50 h 19.245 z"
               id="path1938" /><path
               fill="#0078bb"
               d="m -136.6025,236.6025 v -100 l 28.8675,50 z"
               id="path1940" /></g><g
             class="svg-tile"
             clip-path="url(#tile442)"
             id="g1953"><clipPath
               id="tile442"><path
                 d="m -24.3943,-140.1868 65.1861,-37.6353 c 3.1041,-1.7921 6.2082,0 6.2082,3.5843 v 75.2705 c 0,3.5843 -3.1041,5.3764 -6.2082,3.5843 l -65.1861,-37.6352 c -3.1041,-1.7921 -3.1041,-5.3765 0,-7.1686 z"
                 id="path1944" /></clipPath><path
               fill="#0078bb"
               d="m -36.6025,-136.6025 86.6025,-50 -9.6225,50 h -19.245 l -9.6225,16.6666 z"
               id="path1947" /><path
               fill="#0078bb"
               d="m 50,-186.6025 v 100 l -38.49,-33.3334 9.6225,-16.6666 z"
               id="path1949" /><path
               fill="#0078bb"
               d="m 50,-86.6025 -86.6025,-50 h 57.735 z"
               id="path1951" /></g><g
             class="svg-tile"
             clip-path="url(#tile443)"
             id="g1964"><clipPath
               id="tile443"><path
                 d="m 240.1868,-24.3943 37.6353,65.1861 c 1.7921,3.1041 0,6.2082 -3.5843,6.2082 h -75.2705 c -3.5843,0 -5.3764,-3.1041 -3.5843,-6.2082 l 37.6352,-65.1861 c 1.7921,-3.1041 5.3765,-3.1041 7.1686,0 z"
                 id="path1955" /></clipPath><path
               fill="#00a679"
               d="m 236.6025,-36.6025 50,86.6025 -50,-9.6225 V 21.1325 L 219.9359,11.51 Z"
               id="path1958" /><path
               fill="#00a679"
               d="m 286.6025,50 h -100 l 33.3334,-38.49 16.6666,9.6225 z"
               id="path1960" /><path
               fill="#f2a700"
               d="m 186.6025,50 50,-86.6025 v 57.735 z"
               id="path1962" /></g><g
             class="svg-tile"
             clip-path="url(#tile444)"
             id="g1975"><clipPath
               id="tile444"><path
                 d="m -174.2378,53 h 75.2705 c 3.5843,0 5.3764,3.1041 3.5843,6.2082 l -37.6352,65.1861 c -1.7921,3.1041 -5.3765,3.1041 -7.1686,0 l -37.6353,-65.1861 c -1.7921,-3.1041 0,-6.2082 3.5843,-6.2082 z"
                 id="path1966" /></clipPath><path
               fill="#f2a700"
               d="m -186.6025,50 h 100 l -33.3334,38.49 -16.6666,-9.6225 -16.6667,9.6225 z"
               id="path1969" /><path
               fill="#00a679"
               d="m -86.6025,50 -50,86.6025 -16.6667,-48.1125 16.6667,-9.6225 z"
               id="path1971" /><path
               fill="#f2a700"
               d="m -136.6025,136.6025 -50,-86.6025 50,28.8675 z"
               id="path1973" /></g><g
             class="svg-tile"
             clip-path="url(#tile445)"
             id="g1986"><clipPath
               id="tile445"><path
                 d="m 162.2082,-90.1868 65.1861,-37.6353 c 3.1041,-1.7921 6.2082,0 6.2082,3.5843 v 75.2705 c 0,3.5843 -3.1041,5.3764 -6.2082,3.5843 l -65.1861,-37.6352 c -3.1041,-1.7921 -3.1041,-5.3765 0,-7.1686 z"
                 id="path1977" /></clipPath><path
               fill="#e06300"
               d="m 150,-86.6025 86.6025,-50 -9.6225,50 h -19.245 l -9.6225,16.6666 z"
               id="path1980" /><path
               fill="#00a679"
               d="m 236.6025,-136.6025 v 100 l -38.49,-33.3334 9.6225,-16.6666 z"
               id="path1982" /><path
               fill="#f2a700"
               d="m 236.6025,-36.6025 -86.6025,-50 h 57.735 z"
               id="path1984" /></g><g
             class="svg-tile"
             clip-path="url(#tile446)"
             id="g1999"><clipPath
               id="tile446"><path
                 d="m -226.0825,139.6025 h 78.96 c 3.76,0 7.52,3.76 7.52,7.52 v 78.96 c 0,3.76 -3.76,7.52 -7.52,7.52 h -78.96 c -3.76,0 -7.52,-3.76 -7.52,-7.52 v -78.96 c 0,-3.76 3.76,-7.52 7.52,-7.52 z"
                 id="path1988" /></clipPath><path
               fill="#0078bb"
               d="m -236.6025,136.6025 h 100 l -16.6667,50 h -33.3333 -33.3334 z"
               id="path1991" /><path
               fill="#0078bb"
               d="m -136.6025,136.6025 v 100 l -50,-16.6666 v -33.3334 z"
               id="path1993" /><path
               fill="#e06300"
               d="m -136.6025,236.6025 h -100 l 16.6666,-50 h 33.3334 z"
               id="path1995" /><path
               fill="#00a679"
               d="m -236.6025,236.6025 v -100 l 50,50 z"
               id="path1997" /></g><g
             class="svg-tile"
             clip-path="url(#tile447)"
             id="g2010"><clipPath
               id="tile447"><path
                 d="m 159.2082,-177.8221 65.1861,37.6353 c 3.1041,1.7921 3.1041,5.3765 0,7.1686 l -65.1861,37.6352 c -3.1041,1.7921 -6.2082,0 -6.2082,-3.5843 v -75.2705 c 0,-3.5843 3.1041,-5.3764 6.2082,-3.5843 z"
                 id="path2001" /></clipPath><path
               fill="#00a679"
               d="m 150,-186.6025 86.6025,50 -48.1125,16.6666 -9.6225,-16.6666 h -19.245 z"
               id="path2004" /><path
               fill="#e06300"
               d="m 236.6025,-136.6025 -86.6025,50 9.6225,-50 h 19.245 z"
               id="path2006" /><path
               fill="#f2a700"
               d="m 150,-86.6025 v -100 l 28.8675,50 z"
               id="path2008" /></g><g
             class="svg-tile"
             clip-path="url(#tile448)"
             id="g2021"><clipPath
               id="tile448"><path
                 d="m -124.3943,233.0182 65.1861,-37.6352 c 3.1041,-1.7921 6.2082,0 6.2082,3.5843 v 75.2705 c 0,3.5843 -3.1041,5.3764 -6.2082,3.5843 l -65.1861,-37.6353 c -3.1041,-1.7921 -3.1041,-5.3765 0,-7.1686 z"
                 id="path2012" /></clipPath><path
               fill="#0078bb"
               d="m -136.6025,236.6025 86.6025,-50 -9.6225,50 h -19.245 l -9.6225,16.6667 z"
               id="path2015" /><path
               fill="#00a679"
               d="m -50,186.6025 v 100 l -38.49,-33.3333 9.6225,-16.6667 z"
               id="path2017" /><path
               fill="#e06300"
               d="m -50,286.6025 -86.6025,-50 h 57.735 z"
               id="path2019" /></g><g
             class="svg-tile"
             clip-path="url(#tile449)"
             id="g2032"><clipPath
               id="tile449"><path
                 d="m -124.2378,-133.6025 h 75.2705 c 3.5843,0 5.3764,3.1041 3.5843,6.2082 l -37.6352,65.1861 c -1.7921,3.1041 -5.3765,3.1041 -7.1686,0 l -37.6353,-65.1861 c -1.7921,-3.1041 0,-6.2082 3.5843,-6.2082 z"
                 id="path2023" /></clipPath><path
               fill="#0078bb"
               d="m -136.6025,-136.6025 h 100 l -33.3334,38.49 -16.6666,-9.6225 -16.6667,9.6225 z"
               id="path2026" /><path
               fill="#e06300"
               d="m -36.6025,-136.6025 -50,86.6025 -16.6667,-48.1125 16.6667,-9.6225 z"
               id="path2028" /><path
               fill="#0078bb"
               d="m -86.6025,-50 -50,-86.6025 50,28.8675 z"
               id="path2030" /></g><g
             class="svg-tile"
             clip-path="url(#tile450)"
             id="g2043"><clipPath
               id="tile450"><path
                 d="m -133.0182,-124.3943 37.6352,65.1861 c 1.7921,3.1041 0,6.2082 -3.5843,6.2082 h -75.2705 c -3.5843,0 -5.3764,-3.1041 -3.5843,-6.2082 l 37.6353,-65.1861 c 1.7921,-3.1041 5.3765,-3.1041 7.1686,0 z"
                 id="path2034" /></clipPath><path
               fill="#0078bb"
               d="m -136.6025,-136.6025 50,86.6025 -50,-9.6225 v -19.245 l -16.6667,-9.6225 z"
               id="path2037" /><path
               fill="#0078bb"
               d="m -86.6025,-50 h -100 l 33.3333,-38.49 16.6667,9.6225 z"
               id="path2039" /><path
               fill="#f2a700"
               d="m -186.6025,-50 50,-86.6025 v 57.735 z"
               id="path2041" /></g><g
             class="svg-tile"
             clip-path="url(#tile451)"
             id="g2054"><clipPath
               id="tile451"><path
                 d="m 62.2082,283.0182 65.1861,-37.6352 c 3.1041,-1.7921 6.2082,0 6.2082,3.5843 v 75.2705 c 0,3.5843 -3.1041,5.3764 -6.2082,3.5843 L 62.2082,290.1868 c -3.1041,-1.7921 -3.1041,-5.3765 0,-7.1686 z"
                 id="path2045" /></clipPath><path
               fill="#00a679"
               d="m 50,286.6025 86.6025,-50 -9.6225,50 h -19.245 l -9.6225,16.6667 z"
               id="path2048" /><path
               fill="#e06300"
               d="m 136.6025,236.6025 v 100 l -38.49,-33.3333 9.6225,-16.6667 z"
               id="path2050" /><path
               fill="#00a679"
               d="M 136.6025,336.6025 50,286.6025 h 57.735 z"
               id="path2052" /></g><g
             class="svg-tile"
             clip-path="url(#tile452)"
             id="g2065"><clipPath
               id="tile452"><path
                 d="m -27.3943,-227.8221 65.1861,37.6353 c 3.1041,1.7921 3.1041,5.3765 0,7.1686 l -65.1861,37.6352 c -3.1041,1.7921 -6.2082,0 -6.2082,-3.5843 v -75.2705 c 0,-3.5843 3.1041,-5.3764 6.2082,-3.5843 z"
                 id="path2056" /></clipPath><path
               fill="#00a679"
               d="m -36.6025,-236.6025 86.6025,50 -48.1125,16.6666 -9.6225,-16.6666 H -26.98 Z"
               id="path2059" /><path
               fill="#0078bb"
               d="m 50,-186.6025 -86.6025,50 9.6225,-50 h 19.245 z"
               id="path2061" /><path
               fill="#e06300"
               d="m -36.6025,-136.6025 v -100 l 28.8675,50 z"
               id="path2063" /></g><g
             class="svg-tile"
             clip-path="url(#tile453)"
             id="g2078"><clipPath
               id="tile453"><path
                 d="m 147.1225,239.6025 h 78.96 c 3.76,0 7.52,3.76 7.52,7.52 v 78.96 c 0,3.76 -3.76,7.52 -7.52,7.52 h -78.96 c -3.76,0 -7.52,-3.76 -7.52,-7.52 v -78.96 c 0,-3.76 3.76,-7.52 7.52,-7.52 z"
                 id="path2067" /></clipPath><path
               fill="#0078bb"
               d="m 136.6025,236.6025 h 100 l -16.6666,50 h -33.3334 -33.3333 z"
               id="path2070" /><path
               fill="#e06300"
               d="m 236.6025,236.6025 v 100 l -50,-16.6666 v -33.3334 z"
               id="path2072" /><path
               fill="#00a679"
               d="m 236.6025,336.6025 h -100 l 16.6667,-50 h 33.3333 z"
               id="path2074" /><path
               fill="#e06300"
               d="m 136.6025,336.6025 v -100 l 50,50 z"
               id="path2076" /></g><g
             class="svg-tile"
             clip-path="url(#tile454)"
             id="g2089"><clipPath
               id="tile454"><path
                 d="m -260.9969,-3.5843 65.1862,-37.6352 c 3.1041,-1.7921 6.2082,0 6.2082,3.5843 v 75.2704 c 0,3.5843 -3.1041,5.3764 -6.2082,3.5843 L -260.9969,3.5843 c -3.1041,-1.7921 -3.1041,-5.3765 0,-7.1686 z"
                 id="path2080" /></clipPath><path
               fill="#00a679"
               d="m -273.2051,0 86.6026,-50 -9.6225,50 h -19.2451 l -9.6225,16.6667 z"
               id="path2083" /><path
               fill="#0078bb"
               d="M -186.6025,-50 V 50 L -225.0926,16.6667 -215.4701,0 Z"
               id="path2085" /><path
               fill="#0078bb"
               d="M -186.6025,50 -273.2051,0 h 57.735 z"
               id="path2087" /></g><g
             class="svg-tile"
             clip-path="url(#tile455)"
             id="g2100"><clipPath
               id="tile455"><path
                 d="m 245.8107,245.383 65.1862,37.6352 c 3.1041,1.7921 3.1041,5.3765 0,7.1686 l -65.1862,37.6353 c -3.1041,1.7921 -6.2082,0 -6.2082,-3.5843 v -75.2705 c 0,-3.5843 3.1041,-5.3764 6.2082,-3.5843 z"
                 id="path2091" /></clipPath><path
               fill="#0078bb"
               d="m 236.6025,236.6025 86.6026,50 -48.1125,16.6667 -9.6225,-16.6667 H 246.225 Z"
               id="path2094" /><path
               fill="#00a679"
               d="m 323.2051,286.6025 -86.6026,50 9.6225,-50 h 19.2451 z"
               id="path2096" /><path
               fill="#e06300"
               d="m 236.6025,336.6025 v -100 l 28.8676,50 z"
               id="path2098" /></g><g
             class="svg-tile"
             clip-path="url(#tile456)"
             id="g2111"><clipPath
               id="tile456"><path
                 d="m 295.8107,58.7805 65.1862,37.6352 c 3.1041,1.7921 3.1041,5.3765 0,7.1686 l -65.1862,37.6352 c -3.1041,1.7921 -6.2082,0 -6.2082,-3.5843 V 62.3648 c 0,-3.5843 3.1041,-5.3764 6.2082,-3.5843 z"
                 id="path2102" /></clipPath><path
               fill="#f2a700"
               d="m 286.6025,50 86.6026,50 -48.1125,16.6667 L 315.4701,100 H 296.225 Z"
               id="path2105" /><path
               fill="#00a679"
               d="m 373.2051,100 -86.6026,50 9.6225,-50 h 19.2451 z"
               id="path2107" /><path
               fill="#00a679"
               d="M 286.6025,150 V 50 l 28.8676,50 z"
               id="path2109" /></g><g
             class="svg-tile"
             clip-path="url(#tile457)"
             id="g2124"><clipPath
               id="tile457"><path
                 d="m -128.992,244.4606 68.3814,39.48 c 3.2562,1.88 4.6325,7.0163 2.7525,10.2725 l -39.48,68.3814 c -1.88,3.2562 -7.0163,4.6325 -10.2725,2.7525 l -68.3814,-39.48 c -3.2562,-1.88 -4.6325,-7.0163 -2.7525,-10.2725 l 39.48,-68.3814 c 1.88,-3.2562 7.0163,-4.6325 10.2725,-2.7525 z"
                 id="path2113" /></clipPath><path
               fill="#e06300"
               d="m -136.6025,236.6025 86.6025,50 -39.4338,34.968 -28.8675,-16.6667 -28.8675,-16.6667 z"
               id="path2116" /><path
               fill="#e06300"
               d="m -50,286.6025 -50,86.6026 -34.9679,-39.4338 16.6666,-28.8675 z"
               id="path2118" /><path
               fill="#0078bb"
               d="m -100,373.2051 -86.6025,-50 39.4337,-34.968 28.8675,16.6667 z"
               id="path2120" /><path
               fill="#f2a700"
               d="m -186.6025,323.2051 50,-86.6026 18.3012,68.3013 z"
               id="path2122" /></g><g
             class="svg-tile"
             clip-path="url(#tile458)"
             id="g2135"><clipPath
               id="tile458"><path
                 d="m -37.6352,289.6025 h 75.2704 c 3.5843,0 5.3764,3.1041 3.5843,6.2082 L 3.5843,360.9969 c -1.7921,3.1041 -5.3765,3.1041 -7.1686,0 l -37.6352,-65.1862 c -1.7921,-3.1041 0,-6.2082 3.5843,-6.2082 z"
                 id="path2126" /></clipPath><path
               fill="#00a679"
               d="M -50,286.6025 H 50 L 16.6667,325.0926 0,315.4701 l -16.6667,9.6225 z"
               id="path2129" /><path
               fill="#0078bb"
               d="M 50,286.6025 0,373.2051 -16.6667,325.0926 0,315.4701 Z"
               id="path2131" /><path
               fill="#00a679"
               d="M 0,373.2051 -50,286.6025 0,315.4701 Z"
               id="path2133" /></g><g
             class="svg-tile"
             clip-path="url(#tile459)"
             id="g2146"><clipPath
               id="tile459"><path
                 d="m 248.9673,-33.6025 h 75.2705 c 3.5843,0 5.3764,3.1041 3.5843,6.2082 l -37.6353,65.1861 c -1.7921,3.1041 -5.3765,3.1041 -7.1686,0 L 245.383,-27.3943 c -1.7921,-3.1041 0,-6.2082 3.5843,-6.2082 z"
                 id="path2137" /></clipPath><path
               fill="#e06300"
               d="m 236.6025,-36.6025 h 100 l -33.3333,38.49 -16.6667,-9.6225 -16.6666,9.6225 z"
               id="path2140" /><path
               fill="#e06300"
               d="M 336.6025,-36.6025 286.6025,50 269.9359,1.8875 286.6025,-7.735 Z"
               id="path2142" /><path
               fill="#00a679"
               d="m 286.6025,50 -50,-86.6025 50,28.8675 z"
               id="path2144" /></g><g
             class="svg-tile"
             clip-path="url(#tile460)"
             id="g2159"><clipPath
               id="tile460"><path
                 d="m -126.0825,-233.6025 h 78.96 c 3.76,0 7.52,3.76 7.52,7.52 v 78.96 c 0,3.76 -3.76,7.52 -7.52,7.52 h -78.96 c -3.76,0 -7.52,-3.76 -7.52,-7.52 v -78.96 c 0,-3.76 3.76,-7.52 7.52,-7.52 z"
                 id="path2148" /></clipPath><path
               fill="#e06300"
               d="m -136.6025,-236.6025 h 100 l -16.6667,50 h -33.3333 -33.3334 z"
               id="path2151" /><path
               fill="#e06300"
               d="m -36.6025,-236.6025 v 100 l -50,-16.6667 v -33.3333 z"
               id="path2153" /><path
               fill="#0078bb"
               d="m -36.6025,-136.6025 h -100 l 16.6666,-50 h 33.3334 z"
               id="path2155" /><path
               fill="#e06300"
               d="m -136.6025,-136.6025 v -100 l 50,50 z"
               id="path2157" /></g><g
             class="svg-tile"
             clip-path="url(#tile461)"
             id="g2170"><clipPath
               id="tile461"><path
                 d="m -183.0182,62.2082 37.6352,65.1861 c 1.7921,3.1041 0,6.2082 -3.5843,6.2082 h -75.2705 c -3.5843,0 -5.3764,-3.1041 -3.5843,-6.2082 l 37.6353,-65.1861 c 1.7921,-3.1041 5.3765,-3.1041 7.1686,0 z"
                 id="path2161" /></clipPath><path
               fill="#f2a700"
               d="m -186.6025,50 50,86.6025 -50,-9.6225 v -19.245 l -16.6667,-9.6225 z"
               id="path2164" /><path
               fill="#0078bb"
               d="m -136.6025,136.6025 h -100 l 33.3333,-38.49 16.6667,9.6225 z"
               id="path2166" /><path
               fill="#0078bb"
               d="m -236.6025,136.6025 50,-86.6025 v 57.735 z"
               id="path2168" /></g><g
             class="svg-tile"
             clip-path="url(#tile462)"
             id="g2183"><clipPath
               id="tile462"><path
                 d="m 247.1225,-133.6025 h 78.96 c 3.76,0 7.52,3.76 7.52,7.52 v 78.96 c 0,3.76 -3.76,7.52 -7.52,7.52 h -78.96 c -3.76,0 -7.52,-3.76 -7.52,-7.52 v -78.96 c 0,-3.76 3.76,-7.52 7.52,-7.52 z"
                 id="path2172" /></clipPath><path
               fill="#e06300"
               d="m 236.6025,-136.6025 h 100 l -16.6666,50 h -33.3334 -33.3333 z"
               id="path2175" /><path
               fill="#0078bb"
               d="m 336.6025,-136.6025 v 100 l -50,-16.6667 v -33.3333 z"
               id="path2177" /><path
               fill="#e06300"
               d="m 336.6025,-36.6025 h -100 l 16.6667,-50 h 33.3333 z"
               id="path2179" /><path
               fill="#00a679"
               d="m 236.6025,-36.6025 v -100 l 50,50 z"
               id="path2181" /></g><g
             class="svg-tile"
             clip-path="url(#tile463)"
             id="g2194"><clipPath
               id="tile463"><path
                 d="m 103.5843,-260.9969 37.6352,65.1862 c 1.7921,3.1041 0,6.2082 -3.5843,6.2082 H 62.3648 c -3.5843,0 -5.3764,-3.1041 -3.5843,-6.2082 l 37.6352,-65.1862 c 1.7921,-3.1041 5.3765,-3.1041 7.1686,0 z"
                 id="path2185" /></clipPath><path
               fill="#f2a700"
               d="m 100,-273.2051 50,86.6026 -50,-9.6225 v -19.2451 l -16.6667,-9.6225 z"
               id="path2188" /><path
               fill="#0078bb"
               d="M 150,-186.6025 H 50 l 33.3333,-38.4901 16.6667,9.6225 z"
               id="path2190" /><path
               fill="#0078bb"
               d="m 50,-186.6025 50,-86.6026 v 57.735 z"
               id="path2192" /></g><g
             class="svg-tile"
             clip-path="url(#tile464)"
             id="g2207"><clipPath
               id="tile464"><path
                 d="m 294.2131,157.8581 68.3814,39.48 c 3.2562,1.88 4.6325,7.0163 2.7525,10.2725 l -39.48,68.3814 c -1.88,3.2562 -7.0163,4.6325 -10.2725,2.7525 l -68.3814,-39.48 c -3.2562,-1.88 -4.6325,-7.0163 -2.7525,-10.2725 l 39.48,-68.3814 c 1.88,-3.2562 7.0163,-4.6325 10.2725,-2.7525 z"
                 id="path2196" /></clipPath><path
               fill="#e06300"
               d="m 286.6025,150 86.6026,50 -39.4338,34.9679 -28.8675,-16.6666 -28.8675,-16.6667 z"
               id="path2199" /><path
               fill="#00a679"
               d="m 373.2051,200 -50,86.6025 -34.968,-39.4337 16.6667,-28.8675 z"
               id="path2201" /><path
               fill="#0078bb"
               d="m 323.2051,286.6025 -86.6026,-50 39.4338,-34.9679 28.8675,16.6667 z"
               id="path2203" /><path
               fill="#0078bb"
               d="m 236.6025,236.6025 50,-86.6025 18.3013,68.3013 z"
               id="path2205" /></g><g
             class="svg-tile"
             clip-path="url(#tile465)"
             id="g2218"><clipPath
               id="tile465"><path
                 d="m 298.8107,146.4157 65.1862,-37.6352 c 3.1041,-1.7921 6.2082,0 6.2082,3.5843 v 75.2704 c 0,3.5843 -3.1041,5.3764 -6.2082,3.5843 l -65.1862,-37.6352 c -3.1041,-1.7921 -3.1041,-5.3765 0,-7.1686 z"
                 id="path2209" /></clipPath><path
               fill="#00a679"
               d="m 286.6025,150 86.6026,-50 -9.6225,50 h -19.245 l -9.6225,16.6667 z"
               id="path2212" /><path
               fill="#f2a700"
               d="M 373.2051,100 V 200 L 334.7151,166.6667 344.3376,150 Z"
               id="path2214" /><path
               fill="#e06300"
               d="m 373.2051,200 -86.6026,-50 h 57.7351 z"
               id="path2216" /></g><g
             class="svg-tile"
             clip-path="url(#tile466)"
             id="g2231"><clipPath
               id="tile466"><path
                 d="m 344.2131,-28.7445 68.3814,39.48 c 3.2562,1.88 4.6325,7.0163 2.7525,10.2725 l -39.48,68.3814 c -1.88,3.2562 -7.0163,4.6325 -10.2725,2.7525 l -68.3814,-39.48 c -3.2562,-1.88 -4.6325,-7.0163 -2.7525,-10.2725 l 39.48,-68.3814 c 1.88,-3.2562 7.0163,-4.6325 10.2725,-2.7525 z"
                 id="path2220" /></clipPath><path
               fill="#0078bb"
               d="m 336.6025,-36.6025 86.6026,50 -39.4338,34.9679 -28.8675,-16.6667 -28.8675,-16.6666 z"
               id="path2223" /><path
               fill="#e06300"
               d="m 423.2051,13.3975 -50,86.6025 -34.968,-39.4338 16.6667,-28.8675 z"
               id="path2225" /><path
               fill="#f2a700"
               d="M 373.2051,100 286.6025,50 326.0363,15.0321 354.9038,31.6987 Z"
               id="path2227" /><path
               fill="#e06300"
               d="m 286.6025,50 50,-86.6025 18.3013,68.3012 z"
               id="path2229" /></g><g
             class="svg-tile"
             clip-path="url(#tile467)"
             id="g2242"><clipPath
               id="tile467"><path
                 d="m -224.2378,239.6025 h 75.2705 c 3.5843,0 5.3764,3.1041 3.5843,6.2082 l -37.6352,65.1862 c -1.7921,3.1041 -5.3765,3.1041 -7.1686,0 l -37.6353,-65.1862 c -1.7921,-3.1041 0,-6.2082 3.5843,-6.2082 z"
                 id="path2233" /></clipPath><path
               fill="#e06300"
               d="m -236.6025,236.6025 h 100 l -33.3334,38.4901 -16.6666,-9.6225 -16.6667,9.6225 z"
               id="path2236" /><path
               fill="#f2a700"
               d="m -136.6025,236.6025 -50,86.6026 -16.6667,-48.1125 16.6667,-9.6225 z"
               id="path2238" /><path
               fill="#00a679"
               d="m -186.6025,323.2051 -50,-86.6026 50,28.8676 z"
               id="path2240" /></g><g
             class="svg-tile"
             clip-path="url(#tile468)"
             id="g2255"><clipPath
               id="tile468"><path
                 d="m -215.5945,-178.7445 68.3814,39.48 c 3.2562,1.88 4.6325,7.0163 2.7525,10.2725 l -39.48,68.3814 c -1.88,3.2562 -7.0163,4.6325 -10.2725,2.7525 l -68.3814,-39.48 c -3.2562,-1.88 -4.6325,-7.0163 -2.7525,-10.2725 l 39.48,-68.3814 c 1.88,-3.2562 7.0163,-4.6325 10.2725,-2.7525 z"
                 id="path2244" /></clipPath><path
               fill="#e06300"
               d="m -223.2051,-186.6025 86.6026,50 -39.4338,34.9679 -28.8675,-16.6667 -28.8675,-16.6666 z"
               id="path2247" /><path
               fill="#f2a700"
               d="m -136.6025,-136.6025 -50,86.6025 -34.968,-39.4338 16.6667,-28.8675 z"
               id="path2249" /><path
               fill="#00a679"
               d="m -186.6025,-50 -86.6026,-50 39.4338,-34.9679 28.8675,16.6666 z"
               id="path2251" /><path
               fill="#e06300"
               d="m -273.2051,-100 50,-86.6025 18.3013,68.3012 z"
               id="path2253" /></g><g
             class="svg-tile"
             clip-path="url(#tile469)"
             id="g2266"><clipPath
               id="tile469"><path
                 d="m -46.4157,298.8107 37.6352,65.1862 c 1.7921,3.1041 0,6.2082 -3.5843,6.2082 h -75.2704 c -3.5843,0 -5.3764,-3.1041 -3.5843,-6.2082 l 37.6352,-65.1862 c 1.7921,-3.1041 5.3765,-3.1041 7.1686,0 z"
                 id="path2257" /></clipPath><path
               fill="#00a679"
               d="m -50,286.6025 50,86.6026 -50,-9.6225 v -19.245 l -16.6667,-9.6225 z"
               id="path2260" /><path
               fill="#f2a700"
               d="m 0,373.2051 h -100 l 33.3333,-38.49 16.6667,9.6225 z"
               id="path2262" /><path
               fill="#e06300"
               d="m -100,373.2051 50,-86.6026 v 57.7351 z"
               id="path2264" /></g><g
             class="svg-tile"
             clip-path="url(#tile470)"
             id="g2279"><clipPath
               id="tile470"><path
                 d="m 207.6106,-265.347 68.3814,39.48 c 3.2562,1.88 4.6325,7.0163 2.7525,10.2725 l -39.48,68.3814 c -1.88,3.2562 -7.0163,4.6325 -10.2725,2.7525 l -68.3814,-39.48 c -3.2562,-1.88 -4.6325,-7.0163 -2.7525,-10.2725 l 39.48,-68.3814 c 1.88,-3.2562 7.0163,-4.6325 10.2725,-2.7525 z"
                 id="path2268" /></clipPath><path
               fill="#f2a700"
               d="m 200,-273.2051 86.6025,50 -39.4337,34.968 -28.8675,-16.6667 -28.8675,-16.6667 z"
               id="path2271" /><path
               fill="#0078bb"
               d="m 286.6025,-223.2051 -50,86.6026 -34.9679,-39.4338 16.6667,-28.8675 z"
               id="path2273" /><path
               fill="#00a679"
               d="m 236.6025,-136.6025 -86.6025,-50 39.4338,-34.968 28.8675,16.6667 z"
               id="path2275" /><path
               fill="#e06300"
               d="m 150,-186.6025 50,-86.6026 18.3013,68.3013 z"
               id="path2277" /></g><g
             class="svg-tile"
             clip-path="url(#tile471)"
             id="g2292"><clipPath
               id="tile471"><path
                 d="m 57.6106,294.4606 68.3814,39.48 c 3.2562,1.88 4.6325,7.0163 2.7525,10.2725 l -39.48,68.3814 c -1.88,3.2562 -7.0163,4.6325 -10.2725,2.7525 l -68.3814,-39.48 c -3.2562,-1.88 -4.6325,-7.0163 -2.7525,-10.2725 l 39.48,-68.3814 c 1.88,-3.2562 7.0163,-4.6325 10.2725,-2.7525 z"
                 id="path2281" /></clipPath><path
               fill="#00a679"
               d="m 50,286.6025 86.6025,50 -39.4337,34.968 -28.8675,-16.6667 -28.8675,-16.6667 z"
               id="path2284" /><path
               fill="#0078bb"
               d="m 136.6025,336.6025 -50,86.6026 -34.9679,-39.4338 16.6667,-28.8675 z"
               id="path2286" /><path
               fill="#00a679"
               d="M 86.6025,423.2051 0,373.2051 39.4338,338.2371 68.3013,354.9038 Z"
               id="path2288" /><path
               fill="#0078bb"
               d="m 0,373.2051 50,-86.6026 18.3013,68.3013 z"
               id="path2290" /></g><g
             class="svg-tile"
             clip-path="url(#tile472)"
             id="g2305"><clipPath
               id="tile472"><path
                 d="m -265.5945,7.8581 68.3814,39.48 c 3.2562,1.88 4.6325,7.0163 2.7525,10.2725 l -39.48,68.3814 c -1.88,3.2562 -7.0163,4.6325 -10.2725,2.7525 l -68.3814,-39.48 c -3.2562,-1.88 -4.6325,-7.0163 -2.7525,-10.2725 l 39.48,-68.3814 c 1.88,-3.2562 7.0163,-4.6325 10.2725,-2.7525 z"
                 id="path2294" /></clipPath><path
               fill="#0078bb"
               d="m -273.2051,0 86.6026,50 -39.4338,34.9679 -28.8675,-16.6666 -28.8675,-16.6667 z"
               id="path2297" /><path
               fill="#0078bb"
               d="m -186.6025,50 -50,86.6025 -34.968,-39.4337 16.6667,-28.8675 z"
               id="path2299" /><path
               fill="#e06300"
               d="m -236.6025,136.6025 -86.6026,-50 39.4338,-34.9679 28.8675,16.6667 z"
               id="path2301" /><path
               fill="#e06300"
               d="m -323.2051,86.6025 50,-86.6025 18.3013,68.3013 z"
               id="path2303" /></g><g
             class="svg-tile"
             clip-path="url(#tile473)"
             id="g2318"><clipPath
               id="tile473"><path
                 d="m -89.48,376.2051 h 78.96 c 3.76,0 7.52,3.76 7.52,7.52 v 78.96 c 0,3.76 -3.76,7.52 -7.52,7.52 h -78.96 c -3.76,0 -7.52,-3.76 -7.52,-7.52 v -78.96 c 0,-3.76 3.76,-7.52 7.52,-7.52 z"
                 id="path2307" /></clipPath><path
               fill="#f2a700"
               d="M -100,373.2051 H 0 l -16.6667,50 H -50 -83.3333 Z"
               id="path2310" /><path
               fill="#0078bb"
               d="m 0,373.2051 v 100 l -50,-16.6667 v -33.3333 z"
               id="path2312" /><path
               fill="#00a679"
               d="m 0,473.2051 h -100 l 16.6667,-50 H -50 Z"
               id="path2314" /><path
               fill="#e06300"
               d="m -100,473.2051 v -100 l 50,50 z"
               id="path2316" /></g><g
             class="svg-tile"
             clip-path="url(#tile474)"
             id="g2329"><clipPath
               id="tile474"><path
                 d="m 112.3648,-270.2051 h 75.2704 c 3.5843,0 5.3764,3.1041 3.5843,6.2082 l -37.6352,65.1862 c -1.7921,3.1041 -5.3765,3.1041 -7.1686,0 l -37.6352,-65.1862 c -1.7921,-3.1041 0,-6.2082 3.5843,-6.2082 z"
                 id="path2320" /></clipPath><path
               fill="#00a679"
               d="m 100,-273.2051 h 100 l -33.3333,38.49 -16.6667,-9.6225 -16.6667,9.6225 z"
               id="path2323" /><path
               fill="#e06300"
               d="m 200,-273.2051 -50,86.6026 -16.6667,-48.1126 16.6667,-9.6225 z"
               id="path2325" /><path
               fill="#f2a700"
               d="m 150,-186.6025 -50,-86.6026 50,28.8675 z"
               id="path2327" /></g><g
             class="svg-tile"
             clip-path="url(#tile475)"
             id="g2340"><clipPath
               id="tile475"><path
                 d="m 248.8107,333.0182 65.1862,-37.6352 c 3.1041,-1.7921 6.2082,0 6.2082,3.5843 v 75.2705 c 0,3.5843 -3.1041,5.3764 -6.2082,3.5843 l -65.1862,-37.6353 c -3.1041,-1.7921 -3.1041,-5.3765 0,-7.1686 z"
                 id="path2331" /></clipPath><path
               fill="#00a679"
               d="m 236.6025,336.6025 86.6026,-50 -9.6225,50 h -19.245 l -9.6225,16.6667 z"
               id="path2334" /><path
               fill="#00a679"
               d="m 323.2051,286.6025 v 100 l -38.49,-33.3333 9.6225,-16.6667 z"
               id="path2336" /><path
               fill="#0078bb"
               d="m 323.2051,386.6025 -86.6026,-50 h 57.7351 z"
               id="path2338" /></g><g
             class="svg-tile"
             clip-path="url(#tile476)"
             id="g2351"><clipPath
               id="tile476"><path
                 d="m 148.9673,339.6025 h 75.2705 c 3.5843,0 5.3764,3.1041 3.5843,6.2082 l -37.6353,65.1862 c -1.7921,3.1041 -5.3765,3.1041 -7.1686,0 L 145.383,345.8107 c -1.7921,-3.1041 0,-6.2082 3.5843,-6.2082 z"
                 id="path2342" /></clipPath><path
               fill="#00a679"
               d="m 136.6025,336.6025 h 100 l -33.3333,38.4901 -16.6667,-9.6225 -16.6666,9.6225 z"
               id="path2345" /><path
               fill="#0078bb"
               d="m 236.6025,336.6025 -50,86.6026 -16.6666,-48.1125 16.6666,-9.6225 z"
               id="path2347" /><path
               fill="#f2a700"
               d="m 186.6025,423.2051 -50,-86.6026 50,28.8676 z"
               id="path2349" /></g><g
             class="svg-tile"
             clip-path="url(#tile477)"
             id="g2362"><clipPath
               id="tile477"><path
                 d="m 9.2082,381.9855 65.1861,37.6353 c 3.1041,1.7921 3.1041,5.3765 0,7.1686 L 9.2082,464.4246 C 6.1041,466.2167 3,464.4246 3,460.8403 v -75.2705 c 0,-3.5843 3.1041,-5.3764 6.2082,-3.5843 z"
                 id="path2353" /></clipPath><path
               fill="#00a679"
               d="m 0,373.2051 86.6025,50 L 38.49,439.8717 28.8675,423.2051 H 9.6225 Z"
               id="path2356" /><path
               fill="#f2a700"
               d="m 86.6025,423.2051 -86.6025,50 9.6225,-50 h 19.245 z"
               id="path2358" /><path
               fill="#0078bb"
               d="m 0,473.2051 v -100 l 28.8675,50 z"
               id="path2360" /></g><g
             class="svg-tile"
             clip-path="url(#tile478)"
             id="g2375"><clipPath
               id="tile478"><path
                 d="m 244.2131,344.4606 68.3814,39.48 c 3.2562,1.88 4.6325,7.0163 2.7525,10.2725 l -39.48,68.3814 c -1.88,3.2562 -7.0163,4.6325 -10.2725,2.7525 l -68.3814,-39.48 c -3.2562,-1.88 -4.6325,-7.0163 -2.7525,-10.2725 l 39.48,-68.3814 c 1.88,-3.2562 7.0163,-4.6325 10.2725,-2.7525 z"
                 id="path2364" /></clipPath><path
               fill="#0078bb"
               d="m 236.6025,336.6025 86.6026,50 -39.4338,34.968 -28.8675,-16.6667 -28.8675,-16.6667 z"
               id="path2367" /><path
               fill="#e06300"
               d="m 323.2051,386.6025 -50,86.6026 -34.968,-39.4338 16.6667,-28.8675 z"
               id="path2369" /><path
               fill="#00a679"
               d="m 273.2051,473.2051 -86.6026,-50 39.4338,-34.968 28.8675,16.6667 z"
               id="path2371" /><path
               fill="#0078bb"
               d="m 186.6025,423.2051 50,-86.6026 18.3013,68.3013 z"
               id="path2373" /></g><g
             class="svg-tile"
             clip-path="url(#tile479)"
             id="g2386"><clipPath
               id="tile479"><path
                 d="m 140.1868,348.8107 37.6353,65.1862 c 1.7921,3.1041 0,6.2082 -3.5843,6.2082 H 98.9673 c -3.5843,0 -5.3764,-3.1041 -3.5843,-6.2082 l 37.6352,-65.1862 c 1.7921,-3.1041 5.3765,-3.1041 7.1686,0 z"
                 id="path2377" /></clipPath><path
               fill="#f2a700"
               d="m 136.6025,336.6025 50,86.6026 -50,-9.6225 v -19.245 l -16.6666,-9.6225 z"
               id="path2380" /><path
               fill="#e06300"
               d="m 186.6025,423.2051 h -100 l 33.3334,-38.49 16.6666,9.6225 z"
               id="path2382" /><path
               fill="#0078bb"
               d="m 86.6025,423.2051 50,-86.6026 v 57.7351 z"
               id="path2384" /></g><g
             class="svg-tile"
             clip-path="url(#tile480)"
             id="g2397"><clipPath
               id="tile480"><path
                 d="m -360.8403,3 h 75.2705 c 3.5843,0 5.3764,3.1041 3.5843,6.2082 l -37.6353,65.1861 c -1.7921,3.1041 -5.3765,3.1041 -7.1686,0 L -364.4246,9.2082 c -1.7921,-3.1041 0,-6.2082 3.5843,-6.2082 z"
                 id="path2388" /></clipPath><path
               fill="#0078bb"
               d="m -373.2051,0 h 100 l -33.3333,38.49 -16.6667,-9.6225 -16.6666,9.6225 z"
               id="path2391" /><path
               fill="#e06300"
               d="m -273.2051,0 -50,86.6025 -16.6666,-48.1125 16.6666,-9.6225 z"
               id="path2393" /><path
               fill="#f2a700"
               d="m -323.2051,86.6025 -50,-86.6025 50,28.8675 z"
               id="path2395" /></g><g
             class="svg-tile"
             clip-path="url(#tile481)"
             id="g2408"><clipPath
               id="tile481"><path
                 d="m 212.2082,-276.7894 65.1861,-37.6352 c 3.1041,-1.7921 6.2082,0 6.2082,3.5843 v 75.2705 c 0,3.5843 -3.1041,5.3764 -6.2082,3.5843 l -65.1861,-37.6353 c -3.1041,-1.7921 -3.1041,-5.3765 0,-7.1686 z"
                 id="path2399" /></clipPath><path
               fill="#e06300"
               d="m 200,-273.2051 86.6025,-50 -9.6225,50 h -19.245 l -9.6225,16.6667 z"
               id="path2402" /><path
               fill="#00a679"
               d="m 286.6025,-323.2051 v 100 l -38.49,-33.3333 9.6225,-16.6667 z"
               id="path2404" /><path
               fill="#f2a700"
               d="m 286.6025,-223.2051 -86.6025,-50 h 57.735 z"
               id="path2406" /></g><g
             class="svg-tile"
             clip-path="url(#tile482)"
             id="g2421"><clipPath
               id="tile482"><path
                 d="m 21.008,-315.347 68.3814,39.48 c 3.2562,1.88 4.6325,7.0163 2.7525,10.2725 l -39.48,68.3814 c -1.88,3.2562 -7.0163,4.6325 -10.2725,2.7525 l -68.3814,-39.48 c -3.2562,-1.88 -4.6325,-7.0163 -2.7525,-10.2725 l 39.48,-68.3814 c 1.88,-3.2562 7.0163,-4.6325 10.2725,-2.7525 z"
                 id="path2410" /></clipPath><path
               fill="#00a679"
               d="m 13.3975,-323.2051 86.6025,50 -39.4338,34.968 -28.8675,-16.6667 -28.8675,-16.6667 z"
               id="path2413" /><path
               fill="#0078bb"
               d="m 100,-273.2051 -50,86.6026 -34.9679,-39.4338 16.6666,-28.8675 z"
               id="path2415" /><path
               fill="#00a679"
               d="m 50,-186.6025 -86.6025,-50 39.4337,-34.968 28.8675,16.6667 z"
               id="path2417" /><path
               fill="#f2a700"
               d="m -36.6025,-236.6025 50,-86.6026 18.3012,68.3013 z"
               id="path2419" /></g><g
             class="svg-tile"
             clip-path="url(#tile483)"
             id="g2432"><clipPath
               id="tile483"><path
                 d="m 290.1868,-210.9969 37.6353,65.1862 c 1.7921,3.1041 0,6.2082 -3.5843,6.2082 h -75.2705 c -3.5843,0 -5.3764,-3.1041 -3.5843,-6.2082 l 37.6352,-65.1862 c 1.7921,-3.1041 5.3765,-3.1041 7.1686,0 z"
                 id="path2423" /></clipPath><path
               fill="#f2a700"
               d="m 286.6025,-223.2051 50,86.6026 -50,-9.6225 v -19.2451 l -16.6666,-9.6225 z"
               id="path2426" /><path
               fill="#e06300"
               d="m 336.6025,-136.6025 h -100 l 33.3334,-38.4901 16.6666,9.6225 z"
               id="path2428" /><path
               fill="#0078bb"
               d="m 236.6025,-136.6025 50,-86.6026 v 57.735 z"
               id="path2430" /></g><g
             class="svg-tile"
             clip-path="url(#tile485)"
             id="g2454"><clipPath
               id="tile485"><path
                 d="m -263.9969,-91.2195 65.1862,37.6352 c 3.1041,1.7921 3.1041,5.3765 0,7.1686 l -65.1862,37.6352 c -3.1041,1.7921 -6.2082,0 -6.2082,-3.5843 v -75.2704 c 0,-3.5843 3.1041,-5.3764 6.2082,-3.5843 z"
                 id="path2445" /></clipPath><path
               fill="#00a679"
               d="m -273.2051,-100 86.6026,50 -48.1126,16.6667 L -244.3376,-50 h -19.245 z"
               id="path2448" /><path
               fill="#00a679"
               d="m -186.6025,-50 -86.6026,50 9.6225,-50 h 19.245 z"
               id="path2450" /><path
               fill="#0078bb"
               d="m -273.2051,0 v -100 l 28.8675,50 z"
               id="path2452" /></g><g
             class="svg-tile"
             clip-path="url(#tile486)"
             id="g2465"><clipPath
               id="tile486"><path
                 d="m -83.0182,-310.9969 37.6352,65.1862 c 1.7921,3.1041 0,6.2082 -3.5843,6.2082 h -75.2705 c -3.5843,0 -5.3764,-3.1041 -3.5843,-6.2082 l 37.6353,-65.1862 c 1.7921,-3.1041 5.3765,-3.1041 7.1686,0 z"
                 id="path2456" /></clipPath><path
               fill="#f2a700"
               d="m -86.6025,-323.2051 50,86.6026 -50,-9.6225 v -19.2451 l -16.6667,-9.6225 z"
               id="path2459" /><path
               fill="#e06300"
               d="m -36.6025,-236.6025 h -100 l 33.3333,-38.4901 16.6667,9.6225 z"
               id="path2461" /><path
               fill="#e06300"
               d="m -136.6025,-236.6025 50,-86.6026 v 57.735 z"
               id="path2463" /></g><g
             class="svg-tile"
             clip-path="url(#tile487)"
             id="g2476"><clipPath
               id="tile487"><path
                 d="m -310.9969,183.0182 65.1862,-37.6352 c 3.1041,-1.7921 6.2082,0 6.2082,3.5843 v 75.2705 c 0,3.5843 -3.1041,5.3764 -6.2082,3.5843 l -65.1862,-37.6353 c -3.1041,-1.7921 -3.1041,-5.3765 0,-7.1686 z"
                 id="path2467" /></clipPath><path
               fill="#e06300"
               d="m -323.2051,186.6025 86.6026,-50 -9.6225,50 h -19.2451 l -9.6225,16.6667 z"
               id="path2470" /><path
               fill="#00a679"
               d="m -236.6025,136.6025 v 100 l -38.4901,-33.3333 9.6225,-16.6667 z"
               id="path2472" /><path
               fill="#e06300"
               d="m -236.6025,236.6025 -86.6026,-50 h 57.735 z"
               id="path2474" /></g><g
             class="svg-tile"
             clip-path="url(#tile488)"
             id="g2487"><clipPath
               id="tile488"><path
                 d="m -233.0182,248.8107 37.6352,65.1862 c 1.7921,3.1041 0,6.2082 -3.5843,6.2082 h -75.2705 c -3.5843,0 -5.3764,-3.1041 -3.5843,-6.2082 l 37.6353,-65.1862 c 1.7921,-3.1041 5.3765,-3.1041 7.1686,0 z"
                 id="path2478" /></clipPath><path
               fill="#00a679"
               d="m -236.6025,236.6025 50,86.6026 -50,-9.6225 v -19.245 l -16.6667,-9.6225 z"
               id="path2481" /><path
               fill="#0078bb"
               d="m -186.6025,323.2051 h -100 l 33.3333,-38.49 16.6667,9.6225 z"
               id="path2483" /><path
               fill="#f2a700"
               d="m -286.6025,323.2051 50,-86.6026 v 57.7351 z"
               id="path2485" /></g><g
             class="svg-tile"
             clip-path="url(#tile489)"
             id="g2498"><clipPath
               id="tile489"><path
                 d="m -210.9969,-190.1868 65.1862,-37.6353 c 3.1041,-1.7921 6.2082,0 6.2082,3.5843 v 75.2705 c 0,3.5843 -3.1041,5.3764 -6.2082,3.5843 l -65.1862,-37.6352 c -3.1041,-1.7921 -3.1041,-5.3765 0,-7.1686 z"
                 id="path2489" /></clipPath><path
               fill="#e06300"
               d="m -223.2051,-186.6025 86.6026,-50 -9.6225,50 h -19.2451 l -9.6225,16.6666 z"
               id="path2492" /><path
               fill="#e06300"
               d="m -136.6025,-236.6025 v 100 l -38.4901,-33.3334 9.6225,-16.6666 z"
               id="path2494" /><path
               fill="#e06300"
               d="m -136.6025,-136.6025 -86.6026,-50 h 57.735 z"
               id="path2496" /></g><g
             class="svg-tile"
             clip-path="url(#tile490)"
             id="g2509"><clipPath
               id="tile490"><path
                 d="m -177.3943,331.9855 65.1861,37.6353 c 3.1041,1.7921 3.1041,5.3765 0,7.1686 l -65.1861,37.6352 c -3.1041,1.7921 -6.2082,0 -6.2082,-3.5843 v -75.2705 c 0,-3.5843 3.1041,-5.3764 6.2082,-3.5843 z"
                 id="path2500" /></clipPath><path
               fill="#0078bb"
               d="m -186.6025,323.2051 86.6025,50 -48.1125,16.6666 -9.6225,-16.6666 h -19.245 z"
               id="path2503" /><path
               fill="#e06300"
               d="m -100,373.2051 -86.6025,50 9.6225,-50 h 19.245 z"
               id="path2505" /><path
               fill="#0078bb"
               d="m -186.6025,423.2051 v -100 l 28.8675,50 z"
               id="path2507" /></g><g
             class="svg-tile"
             clip-path="url(#tile491)"
             id="g2520"><clipPath
               id="tile491"><path
                 d="m 348.8107,-40.1868 65.1862,-37.6353 c 3.1041,-1.7921 6.2082,0 6.2082,3.5843 V 1.0327 c 0,3.5843 -3.1041,5.3764 -6.2082,3.5843 l -65.1862,-37.6352 c -3.1041,-1.7921 -3.1041,-5.3765 0,-7.1686 z"
                 id="path2511" /></clipPath><path
               fill="#00a679"
               d="m 336.6025,-36.6025 86.6026,-50 -9.6225,50 h -19.245 l -9.6225,16.6666 z"
               id="path2514" /><path
               fill="#e06300"
               d="m 423.2051,-86.6025 v 100 l -38.49,-33.3334 9.6225,-16.6666 z"
               id="path2516" /><path
               fill="#0078bb"
               d="m 423.2051,13.3975 -86.6026,-50 h 57.7351 z"
               id="path2518" /></g><g
             class="svg-tile"
             clip-path="url(#tile492)"
             id="g2533"><clipPath
               id="tile492"><path
                 d="m 383.7251,103 h 78.96 c 3.76,0 7.52,3.76 7.52,7.52 v 78.96 c 0,3.76 -3.76,7.52 -7.52,7.52 h -78.96 c -3.76,0 -7.52,-3.76 -7.52,-7.52 v -78.96 c 0,-3.76 3.76,-7.52 7.52,-7.52 z"
                 id="path2522" /></clipPath><path
               fill="#00a679"
               d="m 373.2051,100 h 100 l -16.6667,50 h -33.3333 -33.3334 z"
               id="path2525" /><path
               fill="#f2a700"
               d="m 473.2051,100 v 100 l -50,-16.6667 V 150 Z"
               id="path2527" /><path
               fill="#00a679"
               d="m 473.2051,200 h -100 l 16.6666,-50 h 33.3334 z"
               id="path2529" /><path
               fill="#f2a700"
               d="M 373.2051,200 V 100 l 50,50 z"
               id="path2531" /></g><g
             class="svg-tile"
             clip-path="url(#tile493)"
             id="g2544"><clipPath
               id="tile493"><path
                 d="m 298.9673,-220.2051 h 75.2705 c 3.5843,0 5.3764,3.1041 3.5843,6.2082 l -37.6353,65.1862 c -1.7921,3.1041 -5.3765,3.1041 -7.1686,0 l -37.6352,-65.1862 c -1.7921,-3.1041 0,-6.2082 3.5843,-6.2082 z"
                 id="path2535" /></clipPath><path
               fill="#00a679"
               d="m 286.6025,-223.2051 h 100 l -33.3333,38.49 -16.6667,-9.6225 -16.6666,9.6225 z"
               id="path2538" /><path
               fill="#f2a700"
               d="m 386.6025,-223.2051 -50,86.6026 -16.6666,-48.1126 16.6666,-9.6225 z"
               id="path2540" /><path
               fill="#f2a700"
               d="m 336.6025,-136.6025 -50,-86.6026 50,28.8675 z"
               id="path2542" /></g><g
             class="svg-tile"
             clip-path="url(#tile494)"
             id="g2555"><clipPath
               id="tile494"><path
                 d="m -213.9969,-277.8221 65.1862,37.6353 c 3.1041,1.7921 3.1041,5.3765 0,7.1686 l -65.1862,37.6352 c -3.1041,1.7921 -6.2082,0 -6.2082,-3.5843 v -75.2705 c 0,-3.5843 3.1041,-5.3764 6.2082,-3.5843 z"
                 id="path2546" /></clipPath><path
               fill="#f2a700"
               d="m -223.2051,-286.6025 86.6026,50 -48.1126,16.6666 -9.6225,-16.6666 h -19.245 z"
               id="path2549" /><path
               fill="#e06300"
               d="m -136.6025,-236.6025 -86.6026,50 9.6225,-50 h 19.245 z"
               id="path2551" /><path
               fill="#f2a700"
               d="m -223.2051,-186.6025 v -100 l 28.8675,50 z"
               id="path2553" /></g><g
             class="svg-tile"
             clip-path="url(#tile495)"
             id="g2566"><clipPath
               id="tile495"><path
                 d="m -313.9969,95.383 65.1862,37.6352 c 3.1041,1.7921 3.1041,5.3765 0,7.1686 l -65.1862,37.6353 c -3.1041,1.7921 -6.2082,0 -6.2082,-3.5843 V 98.9673 c 0,-3.5843 3.1041,-5.3764 6.2082,-3.5843 z"
                 id="path2557" /></clipPath><path
               fill="#e06300"
               d="m -323.2051,86.6025 86.6026,50 -48.1126,16.6667 -9.6225,-16.6667 h -19.245 z"
               id="path2560" /><path
               fill="#e06300"
               d="m -236.6025,136.6025 -86.6026,50 9.6225,-50 h 19.245 z"
               id="path2562" /><path
               fill="#f2a700"
               d="m -323.2051,186.6025 v -100 l 28.8675,50 z"
               id="path2564" /></g><g
             class="svg-tile"
             clip-path="url(#tile496)"
             id="g2579"><clipPath
               id="tile496"><path
                 d="m 110.52,-370.2051 h 78.96 c 3.76,0 7.52,3.76 7.52,7.52 v 78.96 c 0,3.76 -3.76,7.52 -7.52,7.52 h -78.96 c -3.76,0 -7.52,-3.76 -7.52,-7.52 v -78.96 c 0,-3.76 3.76,-7.52 7.52,-7.52 z"
                 id="path2568" /></clipPath><path
               fill="#00a679"
               d="m 100,-373.2051 h 100 l -16.6667,50 H 150 116.6667 Z"
               id="path2571" /><path
               fill="#e06300"
               d="m 200,-373.2051 v 100 l -50,-16.6666 v -33.3334 z"
               id="path2573" /><path
               fill="#00a679"
               d="M 200,-273.2051 H 100 l 16.6667,-50 H 150 Z"
               id="path2575" /><path
               fill="#0078bb"
               d="m 100,-273.2051 v -100 l 50,50 z"
               id="path2577" /></g><g
             class="svg-tile"
             clip-path="url(#tile497)"
             id="g2590"><clipPath
               id="tile497"><path
                 d="m 426.7894,25.6057 37.6352,65.1861 c 1.7921,3.1041 0,6.2082 -3.5843,6.2082 h -75.2705 c -3.5843,0 -5.3764,-3.1041 -3.5843,-6.2082 l 37.6353,-65.1861 c 1.7921,-3.1041 5.3765,-3.1041 7.1686,0 z"
                 id="path2581" /></clipPath><path
               fill="#e06300"
               d="m 423.2051,13.3975 50,86.6025 -50,-9.6225 V 71.1325 L 406.5384,61.51 Z"
               id="path2584" /><path
               fill="#00a679"
               d="m 473.2051,100 h -100 l 33.3333,-38.49 16.6667,9.6225 z"
               id="path2586" /><path
               fill="#e06300"
               d="m 373.2051,100 50,-86.6025 v 57.735 z"
               id="path2588" /></g><g
             class="svg-tile"
             clip-path="url(#tile498)"
             id="g2603"><clipPath
               id="tile498"><path
                 d="m -362.6851,-97 h 78.96 c 3.76,0 7.52,3.76 7.52,7.52 v 78.96 c 0,3.76 -3.76,7.52 -7.52,7.52 h -78.96 c -3.76,0 -7.52,-3.76 -7.52,-7.52 v -78.96 c 0,-3.76 3.76,-7.52 7.52,-7.52 z"
                 id="path2592" /></clipPath><path
               fill="#e06300"
               d="m -373.2051,-100 h 100 l -16.6666,50 h -33.3334 -33.3333 z"
               id="path2595" /><path
               fill="#0078bb"
               d="M -273.2051,-100 V 0 l -50,-16.6667 V -50 Z"
               id="path2597" /><path
               fill="#0078bb"
               d="m -273.2051,0 h -100 l 16.6667,-50 h 33.3333 z"
               id="path2599" /><path
               fill="#00a679"
               d="m -373.2051,0 v -100 l 50,50 z"
               id="path2601" /></g><g
             class="svg-tile"
             clip-path="url(#tile499)"
             id="g2616"><clipPath
               id="tile499"><path
                 d="m 394.2131,-215.347 68.3814,39.48 c 3.2562,1.88 4.6325,7.0163 2.7525,10.2725 l -39.48,68.3814 c -1.88,3.2562 -7.0163,4.6325 -10.2725,2.7525 l -68.3814,-39.48 c -3.2562,-1.88 -4.6325,-7.0163 -2.7525,-10.2725 l 39.48,-68.3814 c 1.88,-3.2562 7.0163,-4.6325 10.2725,-2.7525 z"
                 id="path2605" /></clipPath><path
               fill="#f2a700"
               d="m 386.6025,-223.2051 86.6026,50 -39.4338,34.968 -28.8675,-16.6667 -28.8675,-16.6667 z"
               id="path2608" /><path
               fill="#0078bb"
               d="m 473.2051,-173.2051 -50,86.6026 -34.968,-39.4338 16.6667,-28.8675 z"
               id="path2610" /><path
               fill="#e06300"
               d="m 423.2051,-86.6025 -86.6026,-50 39.4338,-34.968 28.8675,16.6667 z"
               id="path2612" /><path
               fill="#f2a700"
               d="m 336.6025,-136.6025 50,-86.6026 18.3013,68.3013 z"
               id="path2614" /></g><g
             class="svg-tile"
             clip-path="url(#tile500)"
             id="g2627"><clipPath
               id="tile500"><path
                 d="m 376.7894,212.2082 37.6352,65.1861 c 1.7921,3.1041 0,6.2082 -3.5843,6.2082 h -75.2705 c -3.5843,0 -5.3764,-3.1041 -3.5843,-6.2082 l 37.6353,-65.1861 c 1.7921,-3.1041 5.3765,-3.1041 7.1686,0 z"
                 id="path2618" /></clipPath><path
               fill="#0078bb"
               d="m 373.2051,200 50,86.6025 -50,-9.6225 v -19.245 l -16.6667,-9.6225 z"
               id="path2621" /><path
               fill="#0078bb"
               d="m 423.2051,286.6025 h -100 l 33.3333,-38.49 16.6667,9.6225 z"
               id="path2623" /><path
               fill="#00a679"
               d="m 323.2051,286.6025 50,-86.6025 v 57.735 z"
               id="path2625" /></g><g
             class="svg-tile"
             clip-path="url(#tile503)"
             id="g2660"><clipPath
               id="tile503"><path
                 d="m 25.6057,-326.7894 65.1861,-37.6352 c 3.1041,-1.7921 6.2082,0 6.2082,3.5843 v 75.2705 c 0,3.5843 -3.1041,5.3764 -6.2082,3.5843 l -65.1861,-37.6353 c -3.1041,-1.7921 -3.1041,-5.3765 0,-7.1686 z"
                 id="path2651" /></clipPath><path
               fill="#0078bb"
               d="m 13.3975,-323.2051 86.6025,-50 -9.6225,50 h -19.245 l -9.6225,16.6667 z"
               id="path2654" /><path
               fill="#0078bb"
               d="m 100,-373.2051 v 100 l -38.49,-33.3333 9.6225,-16.6667 z"
               id="path2656" /><path
               fill="#00a679"
               d="m 100,-273.2051 -86.6025,-50 h 57.735 z"
               id="path2658" /></g><g
             class="svg-tile"
             clip-path="url(#tile504)"
             id="g2671"><clipPath
               id="tile504"><path
                 d="M -74.2378,-320.2051 H 1.0327 c 3.5843,0 5.3764,3.1041 3.5843,6.2082 l -37.6352,65.1862 c -1.7921,3.1041 -5.3765,3.1041 -7.1686,0 l -37.6353,-65.1862 c -1.7921,-3.1041 0,-6.2082 3.5843,-6.2082 z"
                 id="path2662" /></clipPath><path
               fill="#0078bb"
               d="m -86.6025,-323.2051 h 100 l -33.3334,38.49 -16.6666,-9.6225 -16.6667,9.6225 z"
               id="path2665" /><path
               fill="#f2a700"
               d="m 13.3975,-323.2051 -50,86.6026 -16.6667,-48.1126 16.6667,-9.6225 z"
               id="path2667" /><path
               fill="#f2a700"
               d="m -36.6025,-236.6025 -50,-86.6026 50,28.8675 z"
               id="path2669" /></g><g
             class="svg-tile"
             clip-path="url(#tile505)"
             id="g2684"><clipPath
               id="tile505"><path
                 d="m -165.5945,-365.347 68.3814,39.48 c 3.2562,1.88 4.6325,7.0163 2.7525,10.2725 l -39.48,68.3814 c -1.88,3.2562 -7.0163,4.6325 -10.2725,2.7525 l -68.3814,-39.48 c -3.2562,-1.88 -4.6325,-7.0163 -2.7525,-10.2725 l 39.48,-68.3814 c 1.88,-3.2562 7.0163,-4.6325 10.2725,-2.7525 z"
                 id="path2673" /></clipPath><path
               fill="#0078bb"
               d="m -173.2051,-373.2051 86.6026,50 -39.4338,34.968 -28.8675,-16.6667 -28.8675,-16.6667 z"
               id="path2676" /><path
               fill="#e06300"
               d="m -86.6025,-323.2051 -50,86.6026 -34.968,-39.4338 16.6667,-28.8675 z"
               id="path2678" /><path
               fill="#f2a700"
               d="m -136.6025,-236.6025 -86.6026,-50 39.4338,-34.968 28.8675,16.6667 z"
               id="path2680" /><path
               fill="#f2a700"
               d="m -223.2051,-286.6025 50,-86.6026 18.3013,68.3013 z"
               id="path2682" /></g><g
             class="svg-tile"
             clip-path="url(#tile506)"
             id="g2695"><clipPath
               id="tile506"><path
                 d="m -447.5994,-53.5843 65.1861,-37.6352 c 3.1041,-1.7921 6.2082,0 6.2082,3.5843 v 75.2704 c 0,3.5843 -3.1041,5.3764 -6.2082,3.5843 l -65.1861,-37.6352 c -3.1041,-1.7921 -3.1041,-5.3765 0,-7.1686 z"
                 id="path2686" /></clipPath><path
               fill="#00a679"
               d="m -459.8076,-50 86.6025,-50 -9.6225,50 h -19.245 l -9.6225,16.6667 z"
               id="path2689" /><path
               fill="#00a679"
               d="M -373.2051,-100 V 0 l -38.49,-33.3333 9.6225,-16.6667 z"
               id="path2691" /><path
               fill="#e06300"
               d="m -373.2051,0 -86.6025,-50 h 57.735 z"
               id="path2693" /></g><g
             class="svg-tile"
             clip-path="url(#tile508)"
             id="g2717"><clipPath
               id="tile508"><path
                 d="m -174.3943,419.6208 65.1861,-37.6353 c 3.1041,-1.7921 6.2082,0 6.2082,3.5843 v 75.2705 c 0,3.5843 -3.1041,5.3764 -6.2082,3.5843 l -65.1861,-37.6352 c -3.1041,-1.7921 -3.1041,-5.3765 0,-7.1686 z"
                 id="path2708" /></clipPath><path
               fill="#e06300"
               d="m -186.6025,423.2051 86.6025,-50 -9.6225,50 h -19.245 l -9.6225,16.6666 z"
               id="path2711" /><path
               fill="#e06300"
               d="m -100,373.2051 v 100 l -38.49,-33.3334 9.6225,-16.6666 z"
               id="path2713" /><path
               fill="#00a679"
               d="m -100,473.2051 -86.6025,-50 h 57.735 z"
               id="path2715" /></g><g
             class="svg-tile"
             clip-path="url(#tile509)"
             id="g2730"><clipPath
               id="tile509"><path
                 d="m 333.7251,289.6025 h 78.96 c 3.76,0 7.52,3.76 7.52,7.52 v 78.96 c 0,3.76 -3.76,7.52 -7.52,7.52 h -78.96 c -3.76,0 -7.52,-3.76 -7.52,-7.52 v -78.96 c 0,-3.76 3.76,-7.52 7.52,-7.52 z"
                 id="path2719" /></clipPath><path
               fill="#0078bb"
               d="m 323.2051,286.6025 h 100 l -16.6667,50 h -33.3333 -33.3334 z"
               id="path2722" /><path
               fill="#f2a700"
               d="m 423.2051,286.6025 v 100 l -50,-16.6666 v -33.3334 z"
               id="path2724" /><path
               fill="#0078bb"
               d="m 423.2051,386.6025 h -100 l 16.6666,-50 h 33.3334 z"
               id="path2726" /><path
               fill="#00a679"
               d="m 323.2051,386.6025 v -100 l 50,50 z"
               id="path2728" /></g><g
             class="svg-tile"
             clip-path="url(#tile510)"
             id="g2741"><clipPath
               id="tile510"><path
                 d="m -310.8403,-183.6025 h 75.2705 c 3.5843,0 5.3764,3.1041 3.5843,6.2082 l -37.6353,65.1861 c -1.7921,3.1041 -5.3765,3.1041 -7.1686,0 l -37.6352,-65.1861 c -1.7921,-3.1041 0,-6.2082 3.5843,-6.2082 z"
                 id="path2732" /></clipPath><path
               fill="#00a679"
               d="m -323.2051,-186.6025 h 100 l -33.3333,38.49 -16.6667,-9.6225 -16.6666,9.6225 z"
               id="path2735" /><path
               fill="#e06300"
               d="m -223.2051,-186.6025 -50,86.6025 -16.6666,-48.1125 16.6666,-9.6225 z"
               id="path2737" /><path
               fill="#e06300"
               d="m -273.2051,-100 -50,-86.6025 50,28.8675 z"
               id="path2739" /></g><g
             class="svg-tile"
             clip-path="url(#tile511)"
             id="g2752"><clipPath
               id="tile511"><path
                 d="m 22.6057,-414.4246 65.1861,37.6352 c 3.1041,1.7921 3.1041,5.3765 0,7.1686 l -65.1861,37.6353 c -3.1041,1.7921 -6.2082,0 -6.2082,-3.5843 v -75.2705 c 0,-3.5843 3.1041,-5.3764 6.2082,-3.5843 z"
                 id="path2743" /></clipPath><path
               fill="#00a679"
               d="m 13.3975,-423.2051 86.6025,50 -48.1125,16.6667 -9.6225,-16.6667 H 23.02 Z"
               id="path2746" /><path
               fill="#0078bb"
               d="m 100,-373.2051 -86.6025,50 9.6225,-50 h 19.245 z"
               id="path2748" /><path
               fill="#f2a700"
               d="m 13.3975,-323.2051 v -100 l 28.8675,50 z"
               id="path2750" /></g><g
             class="svg-tile"
             clip-path="url(#tile514)"
             id="g2787"><clipPath
               id="tile514"><path
                 d="m 335.5698,389.6025 h 75.2705 c 3.5843,0 5.3764,3.1041 3.5843,6.2082 l -37.6352,65.1862 c -1.7921,3.1041 -5.3765,3.1041 -7.1686,0 l -37.6353,-65.1862 c -1.7921,-3.1041 0,-6.2082 3.5843,-6.2082 z"
                 id="path2778" /></clipPath><path
               fill="#0078bb"
               d="m 323.2051,386.6025 h 100 l -33.3334,38.4901 -16.6666,-9.6225 -16.6667,9.6225 z"
               id="path2781" /><path
               fill="#0078bb"
               d="m 423.2051,386.6025 -50,86.6026 -16.6667,-48.1125 16.6667,-9.6225 z"
               id="path2783" /><path
               fill="#e06300"
               d="m 373.2051,473.2051 -50,-86.6026 50,28.8676 z"
               id="path2785" /></g><g
             class="svg-tile"
             clip-path="url(#tile515)"
             id="g2800"><clipPath
               id="tile515"><path
                 d="m -315.5945,194.4606 68.3814,39.48 c 3.2562,1.88 4.6325,7.0163 2.7525,10.2725 l -39.48,68.3814 c -1.88,3.2562 -7.0163,4.6325 -10.2725,2.7525 l -68.3814,-39.48 c -3.2562,-1.88 -4.6325,-7.0163 -2.7525,-10.2725 l 39.48,-68.3814 c 1.88,-3.2562 7.0163,-4.6325 10.2725,-2.7525 z"
                 id="path2789" /></clipPath><path
               fill="#e06300"
               d="m -323.2051,186.6025 86.6026,50 -39.4338,34.968 -28.8675,-16.6667 -28.8675,-16.6667 z"
               id="path2792" /><path
               fill="#f2a700"
               d="m -236.6025,236.6025 -50,86.6026 -34.968,-39.4338 16.6667,-28.8675 z"
               id="path2794" /><path
               fill="#f2a700"
               d="m -286.6025,323.2051 -86.6026,-50 39.4338,-34.968 28.8675,16.6667 z"
               id="path2796" /><path
               fill="#00a679"
               d="m -373.2051,273.2051 50,-86.6026 18.3013,68.3013 z"
               id="path2798" /></g><g
             class="svg-tile"
             clip-path="url(#tile516)"
             id="g2813"><clipPath
               id="tile516"><path
                 d="m -312.6851,-283.6025 h 78.96 c 3.76,0 7.52,3.76 7.52,7.52 v 78.96 c 0,3.76 -3.76,7.52 -7.52,7.52 h -78.96 c -3.76,0 -7.52,-3.76 -7.52,-7.52 v -78.96 c 0,-3.76 3.76,-7.52 7.52,-7.52 z"
                 id="path2802" /></clipPath><path
               fill="#f2a700"
               d="m -323.2051,-286.6025 h 100 l -16.6666,50 h -33.3334 -33.3333 z"
               id="path2805" /><path
               fill="#f2a700"
               d="m -223.2051,-286.6025 v 100 l -50,-16.6667 v -33.3333 z"
               id="path2807" /><path
               fill="#00a679"
               d="m -223.2051,-186.6025 h -100 l 16.6667,-50 h 33.3333 z"
               id="path2809" /><path
               fill="#e06300"
               d="m -323.2051,-186.6025 v -100 l 50,50 z"
               id="path2811" /></g><g
             class="svg-tile"
             clip-path="url(#tile517)"
             id="g2824"><clipPath
               id="tile517"><path
                 d="m 195.8107,431.9855 65.1862,37.6353 c 3.1041,1.7921 3.1041,5.3765 0,7.1686 l -65.1862,37.6352 c -3.1041,1.7921 -6.2082,0 -6.2082,-3.5843 v -75.2705 c 0,-3.5843 3.1041,-5.3764 6.2082,-3.5843 z"
                 id="path2815" /></clipPath><path
               fill="#00a679"
               d="m 186.6025,423.2051 86.6026,50 -48.1125,16.6666 -9.6225,-16.6666 H 196.225 Z"
               id="path2818" /><path
               fill="#f2a700"
               d="m 273.2051,473.2051 -86.6026,50 9.6225,-50 h 19.2451 z"
               id="path2820" /><path
               fill="#f2a700"
               d="m 186.6025,523.2051 v -100 l 28.8676,50 z"
               id="path2822" /></g><g
             class="svg-tile"
             clip-path="url(#tile518)"
             id="g2837"><clipPath
               id="tile518"><path
                 d="m -276.0825,326.2051 h 78.96 c 3.76,0 7.52,3.76 7.52,7.52 v 78.96 c 0,3.76 -3.76,7.52 -7.52,7.52 h -78.96 c -3.76,0 -7.52,-3.76 -7.52,-7.52 v -78.96 c 0,-3.76 3.76,-7.52 7.52,-7.52 z"
                 id="path2826" /></clipPath><path
               fill="#0078bb"
               d="m -286.6025,323.2051 h 100 l -16.6667,50 h -33.3333 -33.3334 z"
               id="path2829" /><path
               fill="#0078bb"
               d="m -186.6025,323.2051 v 100 l -50,-16.6667 v -33.3333 z"
               id="path2831" /><path
               fill="#0078bb"
               d="m -186.6025,423.2051 h -100 l 16.6666,-50 h 33.3334 z"
               id="path2833" /><path
               fill="#e06300"
               d="m -286.6025,423.2051 v -100 l 50,50 z"
               id="path2835" /></g><g
             class="svg-tile"
             clip-path="url(#tile519)"
             id="g2850"><clipPath
               id="tile519"><path
                 d="m -412.6851,89.6025 h 78.96 c 3.76,0 7.52,3.76 7.52,7.52 v 78.96 c 0,3.76 -3.76,7.52 -7.52,7.52 h -78.96 c -3.76,0 -7.52,-3.76 -7.52,-7.52 v -78.96 c 0,-3.76 3.76,-7.52 7.52,-7.52 z"
                 id="path2839" /></clipPath><path
               fill="#e06300"
               d="m -423.2051,86.6025 h 100 l -16.6666,50 h -33.3334 -33.3333 z"
               id="path2842" /><path
               fill="#f2a700"
               d="m -323.2051,86.6025 v 100 l -50,-16.6666 v -33.3334 z"
               id="path2844" /><path
               fill="#e06300"
               d="m -323.2051,186.6025 h -100 l 16.6667,-50 h 33.3333 z"
               id="path2846" /><path
               fill="#f2a700"
               d="m -423.2051,186.6025 v -100 l 50,50 z"
               id="path2848" /></g></g></g></g></g><g
     inkscape:groupmode="layer"
     id="layer2"
     inkscape:label="Layer 2"><path
       d="m 97.477161,104.01283 a 1.0091836,1.0091836 0 0 0 -1.047309,1.04731 v 6.71669 a 1.0091836,1.0091836 0 0 0 1.047309,1.0473 h 15.440509 c 0.26239,0 0.43508,0.17493 0.43508,0.43508 v 50.77314 a 1.0091836,1.0091836 0 0 0 1.0473,1.04506 h 8.02638 a 1.0091836,1.0091836 0 0 0 1.04731,-1.04731 v -50.77089 c 0,-0.2624 0.17268,-0.43508 0.43507,-0.43508 h 16.13796 a 1.0091836,1.0091836 0 0 0 1.04731,-1.0473 v -6.71669 a 1.0091836,1.0091836 0 0 0 -1.04506,-1.04731 z m 214.142039,0 a 1.0091836,1.0091836 0 0 0 -1.04506,1.04731 v 58.96996 a 1.0091836,1.0091836 0 0 0 1.04506,1.04731 h 8.02861 a 1.0091836,1.0091836 0 0 0 1.04507,-1.04731 v -58.96996 a 1.0091836,1.0091836 0 0 0 -1.04731,-1.04731 z m -158.24223,15.78813 c -9.16115,0 -15.96529,5.14907 -18.32229,13.1732 -0.78492,2.70461 -1.04507,5.93176 -1.04507,9.50876 0,4.6243 0.6997,8.5489 2.09462,11.77605 2.87954,7.15399 8.98397,11.42844 18.14287,11.60336 7.41639,0.0897 13.78546,-2.87729 17.44767,-8.02412 0.34985,-0.52478 0.26239,-0.9621 -0.26239,-1.39717 l -5.40698,-4.44937 c -0.52477,-0.43507 -1.04731,-0.34986 -1.48237,0.26239 -2.09462,3.05222 -5.06162,4.88669 -9.42355,4.88669 -5.49444,-0.0897 -8.8965,-2.44447 -10.20396,-6.36907 -0.43731,-0.95985 -0.61223,-2.26955 -0.78492,-3.92461 0,-0.26463 0.17269,-0.43731 0.43507,-0.43731 h 27.39149 c 0.60999,0 1.04731,-0.34985 1.04731,-1.04731 0.0875,-2.79207 0,-5.14684 -0.26239,-7.58906 -1.39492,-10.99113 -7.15399,-17.97243 -19.36511,-17.97243 z m 129.10822,0 c -9.16114,0 -15.96528,5.14907 -18.32229,13.1732 -0.78492,2.70461 -1.04507,5.93176 -1.04507,9.50876 0,4.6243 0.69747,8.5489 2.09461,11.77605 2.8773,7.15399 8.98399,11.42844 18.14289,11.60336 7.41638,0.0897 13.78545,-2.87729 17.44766,-8.02412 0.34985,-0.52478 0.26239,-0.9621 -0.26015,-1.39717 l -5.40921,-4.44937 c -0.52478,-0.43507 -1.04731,-0.34986 -1.48462,0.26239 -2.09239,3.05222 -5.05714,4.88669 -9.41905,4.88669 -5.49669,-0.0897 -8.89876,-2.44447 -10.20845,-6.36907 -0.43508,-0.95985 -0.61,-2.26955 -0.78493,-3.92461 0,-0.26463 0.17493,-0.43731 0.43732,-0.43731 h 27.39148 c 0.61,0 1.0473,-0.34985 1.0473,-1.04731 0.0875,-2.79207 0,-5.14684 -0.26237,-7.58906 -1.39492,-10.99113 -7.154,-17.97243 -19.36736,-17.97243 z m -86.01384,0.17492 c -10.29368,0 -17.44766,5.06162 -17.44766,13.34813 0,8.54891 7.8492,11.34098 14.82827,13.43336 5.67161,1.91969 10.81844,2.52968 10.81844,6.19414 0,2.87954 -3.05222,5.05938 -7.8492,5.05938 -4.97415,0 -8.46368,-2.52968 -8.46368,-5.40923 v -0.17492 a 1.0091836,1.0091836 0 0 0 -1.04731,-1.04507 h -7.58906 a 1.0091836,1.0091836 0 0 0 -1.04731,1.04507 v 0.78492 c 0,7.06653 7.06652,12.38828 18.23258,12.38828 10.72874,0 17.88273,-4.88444 17.88273,-13.25842 0,-8.72383 -8.02637,-11.42845 -15.26558,-13.52306 -5.93176,-1.65731 -10.72874,-2.52969 -10.72874,-6.10445 0,-3.13967 3.13968,-4.79921 7.67652,-4.79921 5.2343,0 8.28652,2.44445 8.28652,5.32175 a 1.0091836,1.0091836 0 0 0 1.04731,1.04731 h 7.32667 a 1.0091836,1.0091836 0 0 0 1.04731,-1.04731 c 0,-7.76398 -6.97907,-13.26067 -17.70781,-13.26067 z m 41.69722,0 c -10.29367,0 -17.44766,5.06162 -17.44766,13.34813 0,8.54891 7.85145,11.34098 14.83052,13.43336 5.66936,1.91969 10.8162,2.52968 10.8162,6.19414 0,2.87954 -3.05222,5.05938 -7.84921,5.05938 -4.97415,0 -8.46369,-2.52968 -8.46369,-5.40923 v -0.17492 a 1.0091836,1.0091836 0 0 0 -1.04506,-1.04507 h -7.58905 a 1.0091836,1.0091836 0 0 0 -1.04731,1.04507 v 0.78492 c 0,7.06653 7.06428,12.38828 18.23257,12.38828 10.72875,0 17.88274,-4.88444 17.88274,-13.25842 0,-8.72383 -8.02637,-11.42845 -15.26558,-13.52306 -5.93401,-1.65731 -10.73098,-2.52969 -10.73098,-6.10445 0,-3.13967 3.13968,-4.79921 7.67651,-4.79921 5.2343,0 8.28652,2.44445 8.28652,5.32175 a 1.0091836,1.0091836 0 0 0 1.04731,1.04731 h 7.32668 a 1.0091836,1.0091836 0 0 0 1.04955,-1.04731 c 0,-7.76398 -6.98132,-13.26067 -17.71006,-13.26067 z m -84.79385,8.55115 c 4.62431,0 7.76623,2.52968 8.89876,6.62921 0.26239,0.78491 0.43731,2.00716 0.52478,3.31461 0,0.26014 -0.17493,0.43507 -0.43732,0.43507 h -17.79527 c -0.26238,0 -0.43731,-0.17493 -0.34985,-0.43507 0.0897,-1.48239 0.26239,-2.70462 0.69746,-3.83938 1.13477,-3.74968 3.92685,-6.10444 8.46369,-6.10444 z m 129.10823,0 c 4.6243,0 7.76398,2.52968 8.89875,6.62921 0.26239,0.78491 0.43732,2.00716 0.52478,3.31461 0,0.26014 -0.17492,0.43507 -0.43731,0.43507 H 273.6739 c -0.26239,0 -0.43732,-0.17493 -0.34985,-0.43507 0.0875,-1.48239 0.26238,-2.70462 0.69746,-3.83938 1.13476,-3.74968 3.9246,-6.10444 8.46144,-6.10444 z m -114.32481,50.34031 c -1.34333,0 -2.27851,0.93519 -2.27851,2.27851 0,1.30073 0.93518,2.27852 2.27851,2.27852 a 2.2246892,2.2246892 0 0 0 2.27852,-2.27852 c 0,-1.34332 -0.97555,-2.27851 -2.27852,-2.27851 z m 8.58479,0.40593 c -0.24445,0 -0.40592,0.16371 -0.40592,0.40816 v 27.66732 c 0,0.24445 0.16147,0.40592 0.40592,0.40592 h 2.07667 c 0.24445,0 0.40593,-0.16147 0.40593,-0.40592 v -27.66957 c 0,-0.24669 -0.16148,-0.40816 -0.40593,-0.40816 z m -22.33659,2.60369 c -0.24669,0 -0.40816,0.16371 -0.40816,0.40816 v 4.71849 c 0,0.0807 -0.0807,0.16371 -0.16147,0.16371 h -2.44223 c -0.24445,0 -0.40591,0.16147 -0.40591,0.40592 v 1.58779 c 0,0.24443 0.16146,0.4059 0.40591,0.4059 h 2.44223 c 0.0807,0 0.16147,0.083 0.16147,0.16372 v 12.89736 c 0.0404,4.23185 2.39961,5.16702 5.98109,5.16702 0.48889,0 0.97779,0 1.50705,-0.0404 0.28481,0 0.40367,-0.16147 0.40367,-0.40593 v -1.66851 c 0,-0.24444 -0.16146,-0.40592 -0.40367,-0.40592 h -1.05852 c -2.44223,0 -3.62185,-0.89705 -3.62185,-3.5411 v -12.00255 c 0,-0.0807 0.0807,-0.16371 0.16371,-0.16371 h 4.63776 c 0.24669,0 0.40816,-0.16147 0.40816,-0.40591 v -1.58779 c 0,-0.24445 -0.16372,-0.40592 -0.40816,-0.40592 h -4.63776 c -0.083,0 -0.16371,-0.083 -0.16371,-0.16371 v -4.7185 c 0,-0.24668 -0.16147,-0.40815 -0.40591,-0.40815 z m -23.27403,4.96518 c -4.2722,0 -7.28405,2.1148 -7.73033,5.12665 -0.0403,0.16147 0.1211,0.28482 0.36554,0.32519 l 2.19778,0.2848 c 0.24445,0.0404 0.40591,-0.083 0.48665,-0.36779 0.36779,-1.74924 2.07667,-2.84813 4.68036,-2.84813 3.37741,0 4.75887,1.83222 4.75887,4.47629 v 1.54741 a 0.17492516,0.17492516 0 0 1 -0.16148,0.16147 h -4.72073 c -5.28811,0 -8.3807,2.52296 -8.3807,6.59333 0,4.27222 3.33703,5.93849 6.79516,5.93849 2.60145,0 4.88221,-0.8522 6.26592,-2.48259 0.1211,-0.1211 0.20183,-0.0382 0.20183,0.083 v 1.66852 c 0,0.24445 0.16371,0.40592 0.40816,0.40592 h 2.07443 c 0.24669,0 0.40816,-0.16147 0.40816,-0.40592 v -13.67107 c 0,-4.03001 -2.68668,-6.83554 -7.64962,-6.83554 z m 61.51984,0 c -4.02776,0 -6.95663,2.31889 -7.85145,5.81739 -0.32519,1.2626 -0.40816,2.72703 -0.40816,4.72073 0,2.27851 0.20408,4.1085 0.77371,5.61331 1.13926,3.13295 3.74294,5.04591 7.64737,5.12665 3.58148,0 6.39149,-1.62591 7.73259,-4.18923 0.12334,-0.24446 0.0404,-0.44853 -0.16147,-0.56964 l -1.58778,-0.93517 c -0.24669,-0.16371 -0.40592,-0.083 -0.56963,0.16147 -0.97554,1.8726 -2.72704,3.01185 -5.16702,2.96924 -3.01185,0 -5.00555,-1.58554 -5.53482,-3.94703 -0.20183,-0.60775 -0.24444,-1.6259 -0.24444,-2.88626 0,-0.12335 0.083,-0.16371 0.16372,-0.16371 h 13.1418 c 0.24445,0 0.40816,-0.16372 0.40816,-0.40816 0.0404,-2.03407 0,-3.04998 -0.16371,-4.14887 -0.61,-4.39556 -3.09259,-7.16072 -8.17887,-7.16072 z m 28.2392,0 c -3.66221,0 -6.34663,2.2359 -7.2437,5.40923 -0.44852,1.3837 -0.56963,3.09483 -0.56963,5.20962 0,1.99371 0.12336,3.70259 0.4889,4.96519 1.01815,3.57923 4.1085,5.44959 7.4859,5.44959 2.56333,0 4.23185,-1.01591 5.33073,-2.43998 0.12334,-0.12111 0.20184,-0.0807 0.20184,0.0404 v 1.50704 c 0,4.59739 -2.48035,6.42738 -8.29774,6.14257 -0.24668,-0.0403 -0.44852,0.1211 -0.44852,0.36554 l -0.0807,1.8726 c 0,0.28482 0.12336,0.40816 0.40592,0.44852 6.51036,0.40593 11.31183,-1.83222 11.31183,-8.7485 V 187.5755 c 0,-0.24669 -0.16147,-0.40816 -0.40592,-0.40816 h -2.07667 c -0.24445,0 -0.40592,0.16147 -0.40592,0.40592 v 1.58778 c 0,0.1211 -0.0807,0.20183 -0.20184,0.0807 -1.18187,-1.50481 -2.97148,-2.39961 -5.49444,-2.39961 z m 21.8477,0 c -4.2722,0 -7.28182,2.1148 -7.7281,5.12665 -0.0404,0.16147 0.1211,0.28482 0.36555,0.32519 l 2.19778,0.2848 c 0.24444,0.0404 0.40592,-0.083 0.48665,-0.36779 0.36779,-1.74924 2.07443,-2.84813 4.67812,-2.84813 3.3774,0 4.76111,1.83222 4.76111,4.47629 v 1.54741 a 0.17492516,0.17492516 0 0 1 -0.16147,0.16147 h -4.72073 c -5.28813,0 -8.38071,2.52296 -8.38071,6.59333 0,4.27222 3.33703,5.93849 6.79516,5.93849 2.60145,0 4.88221,-0.8522 6.26591,-2.48259 0.12111,-0.1211 0.20184,-0.0382 0.20184,0.083 v 1.66852 c 0,0.24445 0.16371,0.40592 0.40816,0.40592 h 2.07443 c 0.24669,0 0.40816,-0.16147 0.40816,-0.40592 v -13.67107 c 0,-4.03001 -2.68667,-6.83554 -7.65186,-6.83554 z m 54.44434,0 c -4.03001,0 -6.95888,2.31889 -7.8537,5.81739 -0.32517,1.2626 -0.40815,2.72703 -0.40815,4.72073 0,2.27851 0.20408,4.1085 0.7737,5.61331 1.13927,3.13295 3.7452,5.04591 7.64738,5.12665 3.58148,0 6.3915,-1.62591 7.73258,-4.18923 0.12335,-0.24446 0.0404,-0.44853 -0.16371,-0.56964 l -1.58554,-0.93517 c -0.24444,-0.16371 -0.40592,-0.083 -0.56963,0.16147 -0.97554,1.8726 -2.72703,3.01185 -5.16701,2.96924 -3.01186,0 -5.00555,-1.58554 -5.53481,-3.94703 -0.20184,-0.60775 -0.24445,-1.6259 -0.24445,-2.88626 0,-0.12335 0.083,-0.16371 0.16371,-0.16371 h 13.14181 c 0.24669,0 0.40816,-0.16372 0.40816,-0.40816 0.0404,-2.03407 0,-3.04998 -0.16371,-4.14887 -0.61,-4.39556 -3.09259,-7.16072 -8.17887,-7.16072 z m -32.18623,0.0404 c -2.27851,0 -4.23184,0.77147 -5.44959,2.35925 -0.12334,0.1211 -0.20632,0.0807 -0.20632,-0.0403 v -1.62814 c 0,-0.24445 -0.16147,-0.40592 -0.40592,-0.40592 h -2.07667 c -0.24446,0 -0.40592,0.16147 -0.40592,0.40592 v 19.77551 c 0,0.24444 0.16146,0.40592 0.40592,0.40592 h 2.07667 c 0.24445,0 0.40592,-0.16148 0.40592,-0.40592 V 194.207 c 0,-2.97148 1.87259,-4.80147 4.72073,-4.80147 2.80777,0 4.63776,1.87035 4.63776,4.88221 v 13.06107 c 0,0.24444 0.16372,0.40592 0.40592,0.40592 h 2.07668 c 0.24444,0 0.40591,-0.16148 0.40591,-0.40592 V 194.207 c 0,-2.97148 1.95333,-4.80147 4.80147,-4.80147 2.76741,0 4.63777,1.87035 4.63777,4.88221 v 13.06107 c 0,0.24444 0.1637,0.40592 0.40815,0.40592 h 2.03407 c 0.24444,0 0.40815,-0.16148 0.40815,-0.40592 v -13.63072 c 0,-4.2722 -2.56557,-6.83553 -6.59333,-6.83553 -2.6463,0 -5.00555,1.0159 -6.22555,3.33703 -0.0807,0.1211 -0.16146,0.1211 -0.20182,0 -1.01816,-2.15741 -3.09483,-3.33703 -5.86,-3.33703 z m -97.97828,0.24446 c -0.24444,0 -0.40591,0.16146 -0.40591,0.40591 v 19.77552 c 0,0.24443 0.16147,0.4059 0.40591,0.4059 h 2.07669 c 0.24443,0 0.40591,-0.16147 0.40591,-0.4059 V 187.5329 c 0,-0.24445 -0.16371,-0.40592 -0.40591,-0.40592 z m 25.63327,2.23814 c 2.80777,0 4.68037,1.6259 5.20964,3.98515 0.16145,0.52926 0.24443,1.50705 0.2848,2.60594 0,0.1211 -0.083,0.16147 -0.1637,0.16147 h -10.53812 c -0.0807,0 -0.16372,-0.0405 -0.16372,-0.16147 0.0405,-1.09889 0.12334,-2.07668 0.32518,-2.7674 0.52926,-2.23815 2.32112,-3.82369 5.04592,-3.82369 z m 28.80883,0 c 2.72479,0 4.47405,1.74925 4.8822,3.94703 0.16147,0.81183 0.24445,1.30072 0.24445,4.10849 0,2.80777 -0.083,3.3348 -0.20408,4.1085 -0.40592,2.11705 -2.07443,3.90667 -4.8822,3.90667 -2.68668,0 -4.55703,-1.74925 -5.12666,-3.94704 -0.20183,-0.56962 -0.36555,-1.87259 -0.36555,-4.10848 0,-2.19779 0.16148,-3.29668 0.40593,-4.07038 0.65035,-2.19778 2.35923,-3.94704 5.04591,-3.94704 z m 75.72017,0 c 2.80777,0 4.68036,1.6259 5.20962,3.98515 0.16148,0.52926 0.2422,1.50705 0.28258,2.60594 0,0.1211 -0.0807,0.16147 -0.16148,0.16147 h -10.53811 c -0.0807,0 -0.16371,-0.0405 -0.16371,-0.16147 0.0404,-1.09889 0.12334,-2.07668 0.32741,-2.7674 0.52703,-2.23815 2.31665,-3.82369 5.04369,-3.82369 z m -165.72366,8.46368 h 4.27221 c 0.0808,0 0.16372,0.0807 0.16372,0.16147 v 3.17332 c 0,2.84814 -2.88851,4.43368 -5.90036,4.43368 -2.52296,0 -4.47628,-1.13701 -4.47628,-3.6196 0,-2.64631 2.39961,-4.14887 5.94296,-4.14887 z m 111.60899,0 h 4.27221 c 0.0807,0 0.16147,0.0807 0.16147,0.16147 v 3.17332 c 0,2.84814 -2.88851,4.43368 -5.89812,4.43368 -2.52296,0 -4.47629,-1.13701 -4.47629,-3.6196 0,-2.64631 2.39961,-4.14887 5.94073,-4.14887 z"
       id="path7093"
       style="fill:#808080;stroke-width:2.24263" /></g></svg>
