<svg xmlns="http://www.w3.org/2000/svg" width="142.723" height="50.363"><defs><clipPath id="a" clipPathUnits="userSpaceOnUse"><rect width=".992" height=".992" x=".004" y=".004" rx=".1" ry=".1" style="stroke-width:.0196698"/></clipPath></defs><path d="M.467.49A.45.45 0 0 0 0 .957v2.995a.45.45 0 0 0 .467.467h6.885c.117 0 .194.078.194.194v22.64a.45.45 0 0 0 .467.466h3.58a.45.45 0 0 0 .466-.467V4.613c0-.117.077-.194.194-.194h7.196a.45.45 0 0 0 .467-.467V.957A.45.45 0 0 0 19.45.49zm95.487 0a.45.45 0 0 0-.466.467v26.295a.45.45 0 0 0 .466.467h3.58a.45.45 0 0 0 .466-.467V.957a.45.45 0 0 0-.467-.467zm-70.56 7.04c-4.086 0-7.12 2.296-8.17 5.874-.35 1.206-.467 2.645-.467 4.24 0 2.062.312 3.812.934 5.251 1.284 3.19 4.006 5.096 8.09 5.174 3.307.04 6.147-1.283 7.78-3.578.156-.234.117-.429-.117-.623l-2.41-1.984c-.235-.194-.468-.156-.662.117-.934 1.361-2.257 2.18-4.202 2.18-2.45-.04-3.967-1.09-4.55-2.84-.195-.429-.273-1.013-.35-1.75 0-.119.077-.196.194-.196h12.214c.272 0 .467-.156.467-.467.04-1.245 0-2.295-.117-3.384-.622-4.9-3.19-8.014-8.635-8.014zm57.57 0c-4.086 0-7.12 2.296-8.17 5.874-.35 1.206-.467 2.645-.467 4.24 0 2.062.311 3.812.934 5.251 1.283 3.19 4.006 5.096 8.09 5.174 3.307.04 6.147-1.283 7.78-3.578.156-.234.117-.429-.116-.623l-2.412-1.984c-.234-.194-.467-.156-.662.117-.933 1.361-2.255 2.18-4.2 2.18-2.45-.04-3.968-1.09-4.552-2.84-.194-.429-.272-1.013-.35-1.75 0-.119.078-.196.195-.196h12.214c.272 0 .467-.156.467-.467.04-1.245 0-2.295-.117-3.384-.622-4.9-3.19-8.014-8.636-8.014zm-38.355.078c-4.59 0-7.78 2.257-7.78 5.952 0 3.812 3.5 5.057 6.612 5.99 2.53.856 4.824 1.128 4.824 2.762 0 1.284-1.36 2.256-3.5 2.256-2.218 0-3.774-1.128-3.774-2.412v-.078a.45.45 0 0 0-.467-.466H37.14a.45.45 0 0 0-.467.466v.35c0 3.151 3.151 5.524 8.13 5.524 4.784 0 7.974-2.178 7.974-5.912 0-3.89-3.579-5.096-6.807-6.03-2.645-.739-4.784-1.128-4.784-2.722 0-1.4 1.4-2.14 3.423-2.14 2.334 0 3.695 1.09 3.695 2.373a.45.45 0 0 0 .467.467h3.267a.45.45 0 0 0 .467-.467c0-3.462-3.112-5.913-7.896-5.913zm18.593 0c-4.59 0-7.78 2.257-7.78 5.952 0 3.812 3.501 5.057 6.613 5.99 2.528.856 4.823 1.128 4.823 2.762 0 1.284-1.36 2.256-3.5 2.256-2.218 0-3.774-1.128-3.774-2.412v-.078a.45.45 0 0 0-.466-.466h-3.384a.45.45 0 0 0-.467.466v.35c0 3.151 3.15 5.524 8.13 5.524 4.784 0 7.974-2.178 7.974-5.912 0-3.89-3.579-5.096-6.807-6.03-2.646-.739-4.785-1.128-4.785-2.722 0-1.4 1.4-2.14 3.423-2.14 2.334 0 3.695 1.09 3.695 2.373a.45.45 0 0 0 .467.467h3.267a.45.45 0 0 0 .468-.467c0-3.462-3.113-5.913-7.897-5.913zm-37.81 3.813c2.062 0 3.463 1.128 3.968 2.956.117.35.195.895.234 1.478 0 .116-.078.194-.195.194h-7.935c-.117 0-.195-.078-.156-.194.04-.66.117-1.206.311-1.712.506-1.672 1.751-2.722 3.774-2.722zm57.57 0c2.062 0 3.462 1.128 3.968 2.956.117.35.195.895.234 1.478 0 .116-.078.194-.195.194h-7.935c-.117 0-.195-.078-.156-.194.04-.66.117-1.206.311-1.712.506-1.672 1.75-2.722 3.773-2.722zM31.984 33.868c-.599 0-1.016.417-1.016 1.016 0 .58.417 1.016 1.016 1.016A.992.992 0 0 0 33 34.884c0-.599-.435-1.016-1.016-1.016zm3.828.181c-.109 0-.18.073-.18.182v12.337c0 .11.071.181.18.181h.926c.11 0 .181-.072.181-.18V34.23c0-.11-.072-.182-.18-.182zm-9.96 1.161c-.11 0-.182.073-.182.182v2.104c0 .036-.036.073-.072.073H24.51c-.109 0-.18.072-.18.181v.708c0 .11.071.181.18.181h1.09c.035 0 .071.037.071.073v5.751c.018 1.887 1.07 2.304 2.667 2.304.218 0 .436 0 .672-.018.127 0 .18-.072.18-.18v-.745c0-.109-.072-.18-.18-.18h-.472c-1.089 0-1.615-.4-1.615-1.58v-5.352c0-.036.036-.073.073-.073h2.068c.11 0 .182-.072.182-.18v-.709c0-.109-.073-.18-.182-.18h-2.068c-.037 0-.073-.038-.073-.074v-2.104c0-.11-.072-.182-.18-.182zm-10.378 2.214c-1.905 0-3.248.943-3.447 2.286-.018.072.054.127.163.145l.98.127c.11.018.181-.037.217-.164.164-.78.926-1.27 2.087-1.27 1.506 0 2.122.817 2.122 1.996v.69a.078.078 0 0 1-.072.072H15.42c-2.358 0-3.737 1.125-3.737 2.94 0 1.905 1.488 2.648 3.03 2.648 1.16 0 2.177-.38 2.794-1.107.054-.054.09-.017.09.037v.744c0 .11.073.181.182.181h.925c.11 0 .182-.072.182-.18v-6.097c0-1.797-1.198-3.048-3.41-3.048zm27.432 0c-1.796 0-3.102 1.034-3.5 2.594-.146.563-.183 1.216-.183 2.105 0 1.016.091 1.832.345 2.503.508 1.397 1.67 2.25 3.41 2.286 1.597 0 2.85-.725 3.448-1.868.055-.109.018-.2-.072-.254l-.708-.417c-.11-.073-.18-.037-.254.072-.435.835-1.216 1.343-2.304 1.324-1.343 0-2.232-.707-2.468-1.76-.09-.27-.109-.725-.109-1.287 0-.055.037-.073.073-.073h5.86c.11 0 .182-.073.182-.182.018-.907 0-1.36-.073-1.85-.272-1.96-1.379-3.193-3.647-3.193zm12.592 0c-1.633 0-2.83.997-3.23 2.412-.2.617-.254 1.38-.254 2.323 0 .89.055 1.651.218 2.214.454 1.596 1.832 2.43 3.338 2.43 1.143 0 1.887-.453 2.377-1.088.055-.054.09-.036.09.018v.672c0 2.05-1.106 2.866-3.7 2.74-.11-.019-.2.053-.2.162l-.036.835c0 .127.055.182.181.2 2.903.181 5.044-.817 5.044-3.9v-8.69c0-.11-.072-.183-.18-.183h-.927c-.109 0-.18.072-.18.181v.708c0 .054-.037.09-.09.036-.528-.67-1.326-1.07-2.45-1.07zm9.742 0c-1.905 0-3.247.943-3.446 2.286-.018.072.054.127.163.145l.98.127c.11.018.181-.037.217-.164.164-.78.925-1.27 2.086-1.27 1.506 0 2.123.817 2.123 1.996v.69a.078.078 0 0 1-.072.072h-2.105c-2.358 0-3.737 1.125-3.737 2.94 0 1.905 1.488 2.648 3.03 2.648 1.16 0 2.177-.38 2.794-1.107.054-.054.09-.017.09.037v.744c0 .11.073.181.182.181h.925c.11 0 .182-.072.182-.18v-6.097c0-1.797-1.198-3.048-3.412-3.048zm24.277 0c-1.797 0-3.103 1.034-3.502 2.594-.145.563-.182 1.216-.182 2.105 0 1.016.091 1.832.345 2.503.508 1.397 1.67 2.25 3.41 2.286 1.597 0 2.85-.725 3.448-1.868.055-.109.018-.2-.073-.254l-.707-.417c-.109-.073-.18-.037-.254.072-.435.835-1.216 1.343-2.304 1.324-1.343 0-2.232-.707-2.468-1.76-.09-.27-.109-.725-.109-1.287 0-.055.037-.073.073-.073h5.86c.11 0 .182-.073.182-.182.018-.907 0-1.36-.073-1.85-.272-1.96-1.379-3.193-3.647-3.193zm-14.352.018c-1.016 0-1.887.344-2.43 1.052-.055.054-.092.036-.092-.018v-.726c0-.109-.072-.18-.18-.18h-.927c-.109 0-.18.071-.18.18v8.818c0 .11.071.181.18.181h.926c.11 0 .181-.072.181-.18v-5.86c0-1.326.835-2.142 2.105-2.142 1.252 0 2.068.834 2.068 2.177v5.824c0 .11.073.181.181.181h.926c.11 0 .181-.072.181-.18v-5.86c0-1.326.871-2.142 2.141-2.142 1.234 0 2.068.834 2.068 2.177v5.824c0 .11.073.181.182.181h.907c.11 0 .182-.072.182-.18V40.49c0-1.905-1.144-3.048-2.94-3.048-1.18 0-2.232.453-2.776 1.488-.036.054-.072.054-.09 0-.454-.962-1.38-1.488-2.613-1.488zm-43.689.11c-.109 0-.18.071-.18.18v8.818c0 .11.071.181.18.181h.926c.11 0 .181-.072.181-.18v-8.819c0-.109-.073-.18-.18-.18zm11.43.997c1.252 0 2.087.725 2.323 1.777.072.236.11.672.127 1.162 0 .054-.037.072-.073.072h-4.699c-.036 0-.073-.018-.073-.072.018-.49.055-.926.145-1.234.236-.998 1.035-1.705 2.25-1.705zm12.846 0c1.215 0 1.995.78 2.177 1.76.072.362.11.58.11 1.832 0 1.252-.038 1.487-.092 1.832-.18.944-.925 1.742-2.177 1.742-1.198 0-2.032-.78-2.286-1.76-.09-.254-.163-.835-.163-1.832 0-.98.072-1.47.181-1.815.29-.98 1.052-1.76 2.25-1.76zm33.764 0c1.252 0 2.087.725 2.323 1.777.072.236.108.672.126 1.162 0 .054-.036.072-.072.072h-4.699c-.036 0-.073-.018-.073-.072.018-.49.055-.926.146-1.234.235-.998 1.033-1.705 2.25-1.705zM15.62 42.323h1.905c.036 0 .073.036.073.072v1.415c0 1.27-1.288 1.977-2.63 1.977-1.126 0-1.997-.507-1.997-1.614 0-1.18 1.07-1.85 2.65-1.85zm49.767 0h1.905c.036 0 .072.036.072.072v1.415c0 1.27-1.288 1.977-2.63 1.977-1.125 0-1.996-.507-1.996-1.614 0-1.18 1.07-1.85 2.65-1.85z" style="fill:gray"/><g clip-path="url(#a)" transform="matrix(28.29129 0 0 28.29129 114.539 -.107)"><path fill="#f86100" d="M0 0h1L.833.5H.167Z"/><path fill="#008ff9" d="M1 0v1L.5.833V.5Z"/><path fill="#00b37d" d="M1 1H0L.167.5H.5Z"/><path fill="#ffba00" d="M0 1V0l.5.5z"/></g></svg>
