<?xml version="1.0" encoding="UTF-8" standalone="no"?>
<!-- Created with Inkscape (http://www.inkscape.org/) -->

<svg
   width="1200"
   height="1200"
   viewBox="0 0 1200 1200"
   version="1.1"
   id="svg5"
   xml:space="preserve"
   inkscape:version="1.2.2 (b0a8486541, 2022-12-01)"
   sodipodi:docname="social-1200x1200.svg"
   xmlns:inkscape="http://www.inkscape.org/namespaces/inkscape"
   xmlns:sodipodi="http://sodipodi.sourceforge.net/DTD/sodipodi-0.dtd"
   xmlns:xlink="http://www.w3.org/1999/xlink"
   xmlns="http://www.w3.org/2000/svg"
   xmlns:svg="http://www.w3.org/2000/svg"><sodipodi:namedview
     id="namedview7"
     pagecolor="#ffffff"
     bordercolor="#666666"
     borderopacity="1.0"
     inkscape:showpageshadow="2"
     inkscape:pageopacity="0.0"
     inkscape:pagecheckerboard="0"
     inkscape:deskcolor="#d1d1d1"
     inkscape:document-units="mm"
     showgrid="false"
     inkscape:zoom="0.4195057"
     inkscape:cx="308.69664"
     inkscape:cy="650.7659"
     inkscape:window-width="1920"
     inkscape:window-height="1170"
     inkscape:window-x="0"
     inkscape:window-y="30"
     inkscape:window-maximized="1"
     inkscape:current-layer="layer1" /><defs
     id="defs2"><rect
       x="487.75204"
       y="124.18904"
       width="293.13428"
       height="112.70085"
       id="rect20571" /></defs><g
     inkscape:label="Layer 1"
     inkscape:groupmode="layer"
     id="layer1"><image
       width="1098.0254"
       height="823.5191"
       preserveAspectRatio="none"
       xlink:href="example-square-grid-alpha.png"
       id="image12681"
       x="-393.11624"
       y="582.63391"
       style="opacity:1"
       transform="rotate(-71.55275)" /><path
       d="m 72.050501,75.724053 a 1.7688166,1.7688166 0 0 0 -1.83564,1.83564 v 11.77247 a 1.7688166,1.7688166 0 0 0 1.83564,1.835638 h 27.062895 c 0.459895,0 0.762563,0.30659 0.762563,0.762554 v 88.991115 a 1.7688166,1.7688166 0 0 0 1.835641,1.83171 h 14.06799 a 1.7688166,1.7688166 0 0 0 1.83564,-1.83565 V 91.930355 c 0,-0.459896 0.30267,-0.762554 0.76256,-0.762554 h 28.28533 a 1.7688166,1.7688166 0 0 0 1.83564,-1.835638 v -11.77247 a 1.7688166,1.7688166 0 0 0 -1.8317,-1.83564 z m 375.331109,0 a 1.7688166,1.7688166 0 0 0 -1.83171,1.83564 V 180.91753 a 1.7688166,1.7688166 0 0 0 1.83171,1.83565 h 14.07191 a 1.7688166,1.7688166 0 0 0 1.8317,-1.83565 V 77.559693 a 1.7688166,1.7688166 0 0 0 -1.83563,-1.83564 z M 170.02723,103.39622 c -16.05693,0 -27.98269,9.02489 -32.11385,23.08894 -1.37575,4.74043 -1.83171,10.39671 -1.83171,16.66619 0,8.1051 1.22638,14.98383 3.67127,20.64012 5.04703,12.53895 15.7464,20.03087 31.79939,20.33745 12.99885,0.15724 24.16205,-5.04309 30.58088,-14.06404 0.61318,-0.9198 0.4599,-1.68629 -0.4599,-2.44884 l -9.47692,-7.79851 c -0.91978,-0.76256 -1.83564,-0.6132 -2.59819,0.45989 -3.67128,5.34969 -8.8716,8.565 -16.51683,8.565 -9.63022,-0.15723 -15.59309,-4.28447 -17.88469,-11.16319 -0.76649,-1.68235 -1.07308,-3.97788 -1.37575,-6.87874 0,-0.46382 0.30267,-0.76649 0.76256,-0.76649 h 48.00962 c 1.06914,0 1.83563,-0.61319 1.83563,-1.83564 0.15329,-4.89372 0,-9.02096 -0.45989,-13.3015 -2.4449,-19.26437 -12.53895,-31.50064 -33.94162,-31.50064 z m 226.29061,0 c -16.05692,0 -27.98268,9.02489 -32.11385,23.08894 -1.37576,4.74043 -1.83172,10.39671 -1.83172,16.66619 0,8.1051 1.22246,14.98383 3.67127,20.64012 5.0431,12.53895 15.74642,20.03087 31.7994,20.33745 12.99884,0.15724 24.16204,-5.04309 30.58088,-14.06404 0.61319,-0.9198 0.45989,-1.68629 -0.45597,-2.44884 l -9.48084,-7.79851 c -0.91979,-0.76256 -1.83565,-0.6132 -2.60213,0.45989 -3.66736,5.34969 -8.86374,8.565 -16.50895,8.565 -9.63417,-0.15723 -15.59704,-4.28447 -17.89257,-11.16319 -0.76256,-1.68235 -1.06916,-3.97788 -1.37575,-6.87874 0,-0.46382 0.30659,-0.76649 0.76649,-0.76649 h 48.00961 c 1.06915,0 1.83563,-0.61319 1.83563,-1.83564 0.15331,-4.89372 0,-9.02096 -0.45987,-13.3015 -2.4449,-19.26437 -12.53896,-31.50064 -33.94556,-31.50064 z m -150.75821,0.30659 c -18.04194,0 -30.58088,8.8716 -30.58088,23.39554 0,14.98384 13.75746,19.87756 25.98981,23.54491 9.94075,3.36469 18.96171,4.43383 18.96171,10.85661 0,5.04702 -5.34969,8.86767 -13.75746,8.86767 -8.71829,0 -14.83446,-4.43383 -14.83446,-9.48087 v -0.30659 a 1.7688166,1.7688166 0 0 0 -1.83565,-1.83171 h -13.3015 a 1.7688166,1.7688166 0 0 0 -1.83564,1.83171 v 1.37575 c 0,12.38565 12.38564,21.7132 31.95662,21.7132 18.80449,0 31.34343,-8.56106 31.34343,-23.23831 0,-15.29044 -14.06799,-20.03087 -26.7563,-23.70214 -10.39671,-2.9048 -18.80448,-4.43384 -18.80448,-10.69939 0,-5.50297 5.50298,-8.41168 13.4548,-8.41168 9.17425,0 14.52394,4.28444 14.52394,9.32754 a 1.7688166,1.7688166 0 0 0 1.83565,1.83564 h 12.8416 a 1.7688166,1.7688166 0 0 0 1.83564,-1.83564 c 0,-13.60808 -12.23236,-23.24224 -31.03683,-23.24224 z m 73.08356,0 c -18.04193,0 -30.58086,8.8716 -30.58086,23.39554 0,14.98384 13.76138,19.87756 25.99374,23.54491 9.93681,3.36469 18.95778,4.43383 18.95778,10.85661 0,5.04702 -5.34969,8.86767 -13.75747,8.86767 -8.7183,0 -14.83448,-4.43383 -14.83448,-9.48087 v -0.30659 a 1.7688166,1.7688166 0 0 0 -1.8317,-1.83171 h -13.30149 a 1.7688166,1.7688166 0 0 0 -1.83564,1.83171 v 1.37575 c 0,12.38565 12.38171,21.7132 31.95661,21.7132 18.80449,0 31.34343,-8.56106 31.34343,-23.23831 0,-15.29044 -14.06798,-20.03087 -26.75629,-23.70214 -10.40066,-2.9048 -18.80841,-4.43384 -18.80841,-10.69939 0,-5.50297 5.50298,-8.41168 13.45478,-8.41168 9.17426,0 14.52395,4.28444 14.52395,9.32754 a 1.7688166,1.7688166 0 0 0 1.83564,1.83564 h 12.84162 a 1.7688166,1.7688166 0 0 0 1.83958,-1.83564 c 0,-13.60808 -12.2363,-23.24224 -31.04079,-23.24224 z m -148.6199,14.98777 c 8.10512,0 13.61203,4.43382 15.59703,11.61915 0.4599,1.37574 0.76649,3.51799 0.91979,5.80958 0,0.45596 -0.3066,0.76256 -0.76649,0.76256 h -31.19013 c -0.45989,0 -0.76649,-0.3066 -0.61319,-0.76256 0.15723,-2.5982 0.45989,-4.74043 1.22244,-6.72936 1.98894,-6.57214 6.88267,-10.69937 14.83449,-10.69937 z m 226.29062,0 c 8.1051,0 13.60809,4.43382 15.59702,11.61915 0.4599,1.37574 0.76649,3.51799 0.91978,5.80958 0,0.45596 -0.30658,0.76256 -0.76648,0.76256 H 380.8741 c -0.4599,0 -0.76649,-0.3066 -0.61318,-0.76256 0.15328,-2.5982 0.45988,-4.74043 1.22244,-6.72936 1.98893,-6.57214 6.87873,-10.69937 14.83055,-10.69937 z m -200.37943,88.23249 c -2.35448,0 -3.99358,1.63912 -3.99358,3.99359 0,2.27981 1.6391,3.99361 3.99358,3.99361 a 3.8992581,3.8992581 0 0 0 3.99361,-3.99361 c 0,-2.35447 -1.70987,-3.99359 -3.99361,-3.99359 z m 15.04674,0.71147 c -0.42845,0 -0.71146,0.28694 -0.71146,0.71539 v 48.49308 c 0,0.42846 0.28301,0.71146 0.71146,0.71146 h 3.63983 c 0.42845,0 0.71147,-0.283 0.71147,-0.71146 v -48.49702 c 0,-0.43238 -0.28302,-0.71538 -0.71147,-0.71538 z m -39.1498,4.56354 c -0.43238,0 -0.71539,0.28695 -0.71539,0.7154 v 8.27019 c 0,0.14151 -0.14151,0.28694 -0.28301,0.28694 h -4.28054 c -0.42845,0 -0.71145,0.28301 -0.71145,0.71147 v 2.78294 c 0,0.42843 0.283,0.71144 0.71145,0.71144 h 4.28054 c 0.1415,0 0.28301,0.14544 0.28301,0.28695 v 22.60547 c 0.0708,7.41725 4.20585,9.05634 10.48318,9.05634 0.85689,0 1.71379,0 2.64144,-0.0708 0.49919,0 0.70752,-0.28301 0.70752,-0.71147 v -2.92444 c 0,-0.42843 -0.283,-0.71146 -0.70752,-0.71146 h -1.85529 c -4.28054,0 -6.34809,-1.57228 -6.34809,-6.20657 v -21.0371 c 0,-0.14152 0.1415,-0.28695 0.28693,-0.28695 h 8.12871 c 0.43237,0 0.71538,-0.28301 0.71538,-0.71144 v -2.78296 c 0,-0.42845 -0.28695,-0.71145 -0.71538,-0.71145 h -8.12871 c -0.14543,0 -0.28693,-0.14544 -0.28693,-0.28694 v -8.27021 c 0,-0.43237 -0.28302,-0.71538 -0.71145,-0.71538 z m -40.79285,8.70258 c -7.48798,0 -12.76691,3.70666 -13.54912,8.98559 -0.0707,0.28301 0.21226,0.4992 0.6407,0.56996 l 3.85209,0.49918 c 0.42845,0.0708 0.71145,-0.14543 0.85296,-0.64463 0.64464,-3.06594 3.63983,-4.99199 8.20337,-4.99199 5.91965,0 8.34096,3.21137 8.34096,7.84569 v 2.71217 a 0.30659489,0.30659489 0 0 1 -0.28303,0.28302 h -8.27411 c -9.26859,0 -14.68903,4.42204 -14.68903,11.55627 0,7.488 5.84888,10.40851 11.91002,10.40851 4.55961,0 8.55714,-1.49368 10.98239,-4.35129 0.21226,-0.21226 0.35376,-0.0669 0.35376,0.14543 v 2.92444 c 0,0.42846 0.28694,0.71146 0.71538,0.71146 h 3.6359 c 0.43238,0 0.71539,-0.283 0.71539,-0.71146 v -23.96156 c 0,-7.06348 -4.70899,-11.98079 -13.40763,-11.98079 z m 107.82706,0 c -7.05953,0 -12.19303,4.06436 -13.76139,10.19625 -0.56996,2.21299 -0.71539,4.77972 -0.71539,8.27413 0,3.99359 0.35769,7.20105 1.35609,9.83856 1.99681,5.49118 6.56034,8.84407 13.40371,8.98558 6.27733,0 11.20249,-2.84977 13.55306,-7.34255 0.21619,-0.42846 0.0709,-0.78615 -0.283,-0.99841 l -2.78295,-1.6391 c -0.43237,-0.28694 -0.71145,-0.14544 -0.9984,0.28301 -1.70985,3.28215 -4.77973,5.27894 -9.05634,5.20425 -5.27893,0 -8.77332,-2.779 -9.70099,-6.91803 -0.35374,-1.06522 -0.42843,-2.84976 -0.42843,-5.05882 0,-0.21619 0.14544,-0.28694 0.28695,-0.28694 h 23.03391 c 0.42845,0 0.71539,-0.28694 0.71539,-0.71538 0.0709,-3.56516 0,-5.34576 -0.28694,-7.27182 -1.06916,-7.70418 -5.42044,-12.55073 -14.33528,-12.55073 z m 49.49543,0 c -6.41884,0 -11.12388,3.91891 -12.69618,9.48086 -0.78614,2.42524 -0.9984,5.42438 -0.9984,9.13102 0,3.49441 0.2162,6.4896 0.85689,8.70258 1.78454,6.2734 7.20106,9.55161 13.1207,9.55161 4.49279,0 7.41724,-1.7806 9.34327,-4.27661 0.21619,-0.21226 0.35377,-0.1415 0.35377,0.0709 v 2.64143 c 0,8.05794 -4.34735,11.2654 -14.54361,10.7662 -0.43237,-0.0707 -0.78613,0.21226 -0.78613,0.6407 l -0.14151,3.28214 c 0,0.49921 0.2162,0.71539 0.71146,0.78613 11.41083,0.71148 19.82648,-3.21138 19.82648,-15.33367 v -34.15783 c 0,-0.43238 -0.28302,-0.71539 -0.71147,-0.71539 h -3.63983 c -0.42845,0 -0.71146,0.28301 -0.71146,0.71146 v 2.78294 c 0,0.21226 -0.14151,0.35376 -0.35376,0.1415 -2.07149,-2.63751 -5.20818,-4.20585 -9.63022,-4.20585 z m 38.29291,0 c -7.48798,0 -12.763,3.70666 -13.5452,8.98559 -0.0708,0.28301 0.21225,0.4992 0.64071,0.56996 l 3.85208,0.49918 c 0.42845,0.0708 0.71147,-0.14543 0.85297,-0.64463 0.64463,-3.06594 3.63589,-4.99199 8.19944,-4.99199 5.91964,0 8.34488,3.21137 8.34488,7.84569 v 2.71217 a 0.30659489,0.30659489 0 0 1 -0.283,0.28302 h -8.27413 c -9.2686,0 -14.68904,4.42204 -14.68904,11.55627 0,7.488 5.84888,10.40851 11.91002,10.40851 4.55962,0 8.55715,-1.49368 10.98239,-4.35129 0.21227,-0.21226 0.35376,-0.0669 0.35376,0.14543 v 2.92444 c 0,0.42846 0.28694,0.71146 0.7154,0.71146 h 3.6359 c 0.43238,0 0.71538,-0.283 0.71538,-0.71146 v -23.96156 c 0,-7.06348 -4.70898,-11.98079 -13.41156,-11.98079 z m 95.42569,0 c -7.06347,0 -12.19697,4.06436 -13.76533,10.19625 -0.56994,2.21299 -0.71538,4.77972 -0.71538,8.27413 0,3.99359 0.3577,7.20105 1.35608,9.83856 1.99682,5.49118 6.56429,8.84407 13.40372,8.98558 6.27733,0 11.20251,-2.84977 13.55305,-7.34255 0.2162,-0.42846 0.0708,-0.78615 -0.28693,-0.99841 l -2.77901,-1.6391 c -0.42844,-0.28694 -0.71146,-0.14544 -0.9984,0.28301 -1.70985,3.28215 -4.77973,5.27894 -9.05633,5.20425 -5.27895,0 -8.77333,-2.779 -9.70098,-6.91803 -0.35376,-1.06522 -0.42845,-2.84976 -0.42845,-5.05882 0,-0.21619 0.14543,-0.28694 0.28695,-0.28694 h 23.03391 c 0.43238,0 0.71539,-0.28694 0.71539,-0.71538 0.0708,-3.56516 0,-5.34576 -0.28694,-7.27182 -1.06915,-7.70418 -5.42044,-12.55073 -14.33527,-12.55073 z m -56.41345,0.0708 c -3.99359,0 -7.41724,1.35216 -9.55161,4.1351 -0.21619,0.21226 -0.36163,0.14151 -0.36163,-0.0707 v -2.85369 c 0,-0.42844 -0.28301,-0.71145 -0.71146,-0.71145 h -3.63982 c -0.42846,0 -0.71147,0.28301 -0.71147,0.71145 v 34.66094 c 0,0.42845 0.28301,0.71147 0.71147,0.71147 h 3.63982 c 0.42845,0 0.71146,-0.28302 0.71146,-0.71147 V 233.8092 c 0,-5.20818 3.28213,-8.41564 8.27413,-8.41564 4.92124,0 8.12869,3.27821 8.12869,8.55715 v 22.8924 c 0,0.42845 0.28695,0.71147 0.71147,0.71147 h 3.63983 c 0.42845,0 0.71146,-0.28302 0.71146,-0.71147 V 233.8092 c 0,-5.20818 3.42364,-8.41564 8.41562,-8.41564 4.85051,0 8.12872,3.27821 8.12872,8.55715 v 22.8924 c 0,0.42845 0.28693,0.71147 0.71538,0.71147 h 3.56515 c 0.42844,0 0.71538,-0.28302 0.71538,-0.71147 v -23.89083 c 0,-7.48798 -4.49673,-11.98078 -11.55627,-11.98078 -4.63823,0 -8.77333,1.7806 -10.91164,5.84888 -0.1415,0.21226 -0.283,0.21226 -0.35375,0 -1.78455,-3.78133 -5.42437,-5.84888 -10.27093,-5.84888 z m -171.72853,0.42846 c -0.42843,0 -0.71144,0.283 -0.71144,0.71144 v 34.66096 c 0,0.42843 0.28301,0.71144 0.71144,0.71144 h 3.63985 c 0.42843,0 0.71145,-0.28301 0.71145,-0.71144 v -34.66096 c 0,-0.42844 -0.28693,-0.71145 -0.71145,-0.71145 z m 44.92795,3.92283 c 4.92124,0 8.20339,2.84976 9.13104,6.98486 0.28299,0.92764 0.42843,2.64143 0.49918,4.56749 0,0.21225 -0.14542,0.28301 -0.28692,0.28301 h -18.47038 c -0.14151,0 -0.28695,-0.0709 -0.28695,-0.28301 0.0709,-1.92606 0.21618,-3.63985 0.56995,-4.85049 0.92764,-3.92284 4.06828,-6.70186 8.84408,-6.70186 z m 50.49383,0 c 4.7758,0 7.84175,3.06595 8.55713,6.91804 0.28301,1.42291 0.42845,2.27981 0.42845,7.20104 0,4.92124 -0.14544,5.84497 -0.3577,7.20105 -0.71145,3.71059 -3.63589,6.8473 -8.55713,6.8473 -4.70899,0 -7.98719,-3.06595 -8.9856,-6.91805 -0.35375,-0.9984 -0.6407,-3.28213 -0.6407,-7.20103 0,-3.8521 0.28302,-5.77815 0.71147,-7.13424 1.13989,-3.85209 4.13508,-6.91804 8.84408,-6.91804 z m 132.71628,0 c 4.92124,0 8.20337,2.84976 9.13101,6.98486 0.28303,0.92764 0.42451,2.64143 0.49528,4.56749 0,0.21225 -0.1415,0.28301 -0.28302,0.28301 h -18.47036 c -0.14152,0 -0.28695,-0.0709 -0.28695,-0.28301 0.0708,-1.92606 0.21619,-3.63985 0.57387,-4.85049 0.92372,-3.92284 4.06043,-6.70186 8.84017,-6.70186 z m -290.46722,14.83447 h 7.48798 c 0.14153,0 0.28696,0.14151 0.28696,0.28301 v 5.56194 c 0,4.992 -5.06275,7.771 -10.34168,7.771 -4.42205,0 -7.84567,-1.99286 -7.84567,-6.34415 0,-4.63823 4.20584,-7.2718 10.41635,-7.2718 z m 195.61934,0 h 7.48799 c 0.14151,0 0.283,0.14151 0.283,0.28301 v 5.56194 c 0,4.992 -5.06274,7.771 -10.33775,7.771 -4.42204,0 -7.84568,-1.99286 -7.84568,-6.34415 0,-4.63823 4.20585,-7.2718 10.41244,-7.2718 z"
       id="path7093"
       style="fill:#808080;stroke-width:3.9307" /><image
       width="705.27008"
       height="528.95251"
       preserveAspectRatio="none"
       xlink:href="screenshots/wide-02-play-triangle.png"
       id="image3797"
       x="512.87891"
       y="570.7196"
       transform="rotate(3.3051083)" /><image
       width="530.20911"
       height="397.6568"
       preserveAspectRatio="none"
       xlink:href="screenshots/wide-01-main-menu.png"
       id="image3430"
       x="10.298174"
       y="350.12173"
       transform="rotate(-2.975695)" /><image
       width="459.24194"
       height="344.43149"
       preserveAspectRatio="none"
       xlink:href="screenshots/wide-04-setup.png"
       id="image3799"
       x="82.145271"
       y="807.77539"
       transform="rotate(2.7882325)" /></g></svg>
