<?xml version="1.0" encoding="UTF-8" standalone="no"?>
<!-- Created with Inkscape (http://www.inkscape.org/) -->

<svg
   width="1024"
   height="500"
   viewBox="0 0 1024 500"
   version="1.1"
   id="svg5"
   xml:space="preserve"
   inkscape:version="1.2.2 (b0a8486541, 2022-12-01)"
   sodipodi:docname="social-1024x500.svg"
   xmlns:inkscape="http://www.inkscape.org/namespaces/inkscape"
   xmlns:sodipodi="http://sodipodi.sourceforge.net/DTD/sodipodi-0.dtd"
   xmlns:xlink="http://www.w3.org/1999/xlink"
   xmlns="http://www.w3.org/2000/svg"
   xmlns:svg="http://www.w3.org/2000/svg"><sodipodi:namedview
     id="namedview7"
     pagecolor="#ffffff"
     bordercolor="#666666"
     borderopacity="1.0"
     inkscape:showpageshadow="2"
     inkscape:pageopacity="0.0"
     inkscape:pagecheckerboard="0"
     inkscape:deskcolor="#d1d1d1"
     inkscape:document-units="mm"
     showgrid="false"
     inkscape:zoom="0.75920933"
     inkscape:cx="349.70592"
     inkscape:cy="56.637871"
     inkscape:window-width="1920"
     inkscape:window-height="1170"
     inkscape:window-x="0"
     inkscape:window-y="30"
     inkscape:window-maximized="1"
     inkscape:current-layer="layer1" /><defs
     id="defs2"><rect
       x="487.75204"
       y="124.18904"
       width="293.13428"
       height="112.70085"
       id="rect20571" /></defs><g
     inkscape:label="Layer 1"
     inkscape:groupmode="layer"
     id="layer1"><image
       width="773.84652"
       height="580.38489"
       preserveAspectRatio="none"
       xlink:href="example-square-grid-alpha.png"
       id="image12681"
       x="-756.91284"
       y="-1118.7786"
       style="opacity:1"
       transform="rotate(110.60588)" /><path
       d="m 25.347757,27.051807 a 1.461004,1.461004 0 0 0 -1.516198,1.516198 v 9.723804 a 1.461004,1.461004 0 0 0 1.516198,1.516197 h 22.353362 c 0.379863,0 0.629861,0.253237 0.629861,0.629853 v 73.504721 a 1.461004,1.461004 0 0 0 1.516198,1.51295 h 11.619853 a 1.461004,1.461004 0 0 0 1.516198,-1.5162 V 40.437859 c 0,-0.379864 0.249997,-0.629853 0.629861,-0.629853 h 23.36307 a 1.461004,1.461004 0 0 0 1.5162,-1.516197 v -9.723804 a 1.461004,1.461004 0 0 0 -1.51295,-1.516198 z m 310.015323,0 a 1.461004,1.461004 0 0 0 -1.51295,1.516198 v 85.371325 a 1.461004,1.461004 0 0 0 1.51295,1.5162 h 11.62309 a 1.461004,1.461004 0 0 0 1.51295,-1.5162 V 28.568005 a 1.461004,1.461004 0 0 0 -1.51619,-1.516198 z M 106.2744,49.908414 c -13.26267,0 -23.11309,7.454363 -26.52534,19.070958 -1.13634,3.915493 -1.51295,8.587458 -1.51295,13.765904 0,6.694644 1.01296,12.376324 3.03239,17.048297 4.16874,10.356897 13.00618,16.545057 26.2656,16.798297 10.73677,0.12987 19.95733,-4.16549 25.25914,-11.6166 0.50648,-0.75973 0.37987,-1.39283 -0.37986,-2.02268 l -7.82773,-6.44141 c -0.75972,-0.629853 -1.5162,-0.506482 -2.14605,0.379863 -3.0324,4.418727 -7.32775,7.074507 -13.64254,7.074507 -7.95435,-0.12987 -12.87955,-3.53888 -14.77237,-9.220557 -0.6331,-1.38958 -0.88634,-3.285641 -1.13634,-5.681689 0,-0.383103 0.25,-0.6331 0.62986,-0.6331 h 39.6549 c 0.88309,0 1.51619,-0.506482 1.51619,-1.516198 0.12662,-4.042112 0,-7.451115 -0.37986,-10.986745 C 132.29001,60.015309 123.95255,49.908414 106.2744,49.908414 Z m 186.91112,0 c -13.26267,0 -23.11309,7.454363 -26.52534,19.070958 -1.13635,3.915493 -1.51296,8.587458 -1.51296,13.765904 0,6.694644 1.00972,12.376324 3.03239,17.048297 4.16549,10.356897 13.00619,16.545057 26.26561,16.798297 10.73676,0.12987 19.95732,-4.16549 25.25914,-11.6166 0.50648,-0.75973 0.37986,-1.39283 -0.37662,-2.02268 l -7.83097,-6.44141 c -0.75973,-0.629853 -1.5162,-0.506482 -2.1493,0.379863 -3.02916,4.418727 -7.32126,7.074507 -13.63604,7.074507 -7.95761,-0.12987 -12.88281,-3.53888 -14.77887,-9.220557 -0.62986,-1.38958 -0.8831,-3.285641 -1.13634,-5.681689 0,-0.383103 0.25324,-0.6331 0.63311,-0.6331 h 39.65489 c 0.88309,0 1.51619,-0.506482 1.51619,-1.516198 0.12663,-4.042112 0,-7.451115 -0.37985,-10.986745 -2.01943,-15.911952 -10.3569,-26.018847 -28.03829,-26.018847 z m -124.523,0.253237 c -14.90225,0 -25.25914,7.327744 -25.25914,19.324203 0,12.376324 11.36336,16.418436 21.46702,19.447584 8.21084,2.779159 15.66196,3.662248 15.66196,8.967321 0,4.168731 -4.41873,7.324501 -11.36336,7.324501 -7.20113,0 -12.25295,-3.66225 -12.25295,-7.830983 v -0.253245 a 1.461004,1.461004 0 0 0 -1.5162,-1.51295 H 144.4131 a 1.461004,1.461004 0 0 0 -1.5162,1.51295 v 1.136343 c 0,10.230275 10.23027,17.934635 26.39547,17.934635 15.5321,0 25.88899,-7.07126 25.88899,-19.194348 0,-12.62957 -11.61985,-16.545055 -22.10012,-19.577451 -8.58746,-2.399295 -15.53209,-3.662256 -15.53209,-8.837455 0,-4.545335 4.54534,-6.94787 11.11337,-6.94787 7.57773,0 11.99646,3.538861 11.99646,7.704349 a 1.461004,1.461004 0 0 0 1.5162,1.516198 h 10.60689 a 1.461004,1.461004 0 0 0 1.5162,-1.516198 c 0,-11.239979 -10.10366,-19.197584 -25.63575,-19.197584 z m 60.36543,0 c -14.90224,0 -25.25913,7.327744 -25.25913,19.324203 0,12.376324 11.36661,16.418436 21.47027,19.447584 8.20759,2.779159 15.65871,3.662248 15.65871,8.967321 0,4.168731 -4.41872,7.324501 -11.36337,7.324501 -7.20112,0 -12.25295,-3.66225 -12.25295,-7.830983 v -0.253245 a 1.461004,1.461004 0 0 0 -1.51295,-1.51295 h -10.98674 a 1.461004,1.461004 0 0 0 -1.5162,1.51295 v 1.136343 c 0,10.230275 10.22702,17.934635 26.39547,17.934635 15.53209,0 25.88899,-7.07126 25.88899,-19.194348 0,-12.62957 -11.61985,-16.545055 -22.10012,-19.577451 -8.59071,-2.399295 -15.53534,-3.662256 -15.53534,-8.837455 0,-4.545335 4.54534,-6.94787 11.11336,-6.94787 7.57774,0 11.99647,3.538861 11.99647,7.704349 a 1.461004,1.461004 0 0 0 1.5162,1.516198 h 10.60689 a 1.461004,1.461004 0 0 0 1.51945,-1.516198 c 0,-11.239979 -10.10691,-19.197584 -25.63901,-19.197584 z m -122.7568,12.379572 c 6.69465,0 11.24324,3.66224 12.88281,9.597163 0.37986,1.136335 0.6331,2.905778 0.75972,4.798591 0,0.376607 -0.25324,0.629853 -0.6331,0.629853 H 93.51821 c -0.37986,0 -0.6331,-0.253246 -0.50648,-0.629853 0.12987,-2.146059 0.37986,-3.915493 1.00971,-5.55831 1.64282,-5.428441 5.68493,-8.837444 12.25296,-8.837444 z m 186.91112,0 c 6.69464,0 11.23999,3.66224 12.8828,9.597163 0.37987,1.136335 0.63311,2.905778 0.75972,4.798591 0,0.376607 -0.25323,0.629853 -0.6331,0.629853 h -25.76236 c -0.37987,0 -0.63311,-0.253246 -0.50648,-0.629853 0.12661,-2.146059 0.37985,-3.915493 1.00971,-5.55831 1.64282,-5.428441 5.68168,-8.837444 12.24971,-8.837444 z M 127.67323,135.41934 c -1.94475,0 -3.29861,1.35387 -3.29861,3.29862 0,1.88307 1.35386,3.29863 3.29861,3.29863 a 3.2207022,3.2207022 0 0 0 3.29863,-3.29863 c 0,-1.94475 -1.41231,-3.29862 -3.29863,-3.29862 z m 12.42828,0.58765 c -0.35389,0 -0.58765,0.23701 -0.58765,0.5909 v 40.05423 c 0,0.35389 0.23376,0.58765 0.58765,0.58765 h 3.00642 c 0.35389,0 0.58765,-0.23376 0.58765,-0.58765 v -40.05748 c 0,-0.35714 -0.23376,-0.59089 -0.58765,-0.59089 z m -32.33689,3.76939 c -0.35713,0 -0.59089,0.23701 -0.59089,0.5909 v 6.831 c 0,0.11688 -0.11689,0.23701 -0.23376,0.23701 h -3.53563 c -0.35389,0 -0.58765,0.23376 -0.58765,0.58765 v 2.29865 c 0,0.35388 0.23376,0.58764 0.58765,0.58764 h 3.53563 c 0.11687,0 0.23376,0.12013 0.23376,0.23701 v 18.67163 c 0.0585,6.12648 3.47394,7.48034 8.65888,7.48034 0.70777,0 1.41555,0 2.18177,-0.0585 0.41232,0 0.5844,-0.23376 0.5844,-0.58765 v -2.41553 c 0,-0.35388 -0.23376,-0.58765 -0.5844,-0.58765 h -1.53243 c -3.53563,0 -5.24338,-1.29867 -5.24338,-5.12649 V 151.1462 c 0,-0.11689 0.11687,-0.23701 0.237,-0.23701 h 6.71413 c 0.35713,0 0.59089,-0.23376 0.59089,-0.58764 v -2.29866 c 0,-0.35389 -0.23701,-0.58764 -0.59089,-0.58764 h -6.71413 c -0.12013,0 -0.237,-0.12013 -0.237,-0.23701 v -6.83101 c 0,-0.35713 -0.23377,-0.59089 -0.58765,-0.59089 z m -33.694002,7.18814 c -6.184906,0 -10.545188,3.06162 -11.19128,7.4219 -0.0584,0.23376 0.17532,0.41233 0.529209,0.47077 l 3.181742,0.41232 c 0.353888,0.0585 0.587646,-0.12012 0.704529,-0.53245 0.532457,-2.5324 3.006413,-4.12328 6.7758,-4.12328 4.889502,0 6.889452,2.65253 6.889452,6.48037 v 2.2402 a 0.2532407,0.2532407 0 0 1 -0.23377,0.23376 h -6.834242 c -7.655658,0 -12.132823,3.65251 -12.132823,9.54523 0,6.18492 4.831054,8.5972 9.837419,8.5972 3.766148,0 7.068016,-1.23374 9.071216,-3.59407 0.17532,-0.17532 0.2922,-0.0552 0.2922,0.12012 v 2.41553 c 0,0.35389 0.23701,0.58765 0.59089,0.58765 h 3.00318 c 0.35713,0 0.59089,-0.23376 0.59089,-0.58765 v -19.79173 c 0,-5.83428 -3.88952,-9.89587 -11.074412,-9.89587 z m 89.062802,0 c -5.83102,0 -10.07118,3.35707 -11.3666,8.42188 -0.47078,1.82788 -0.5909,3.94795 -0.5909,6.83425 0,3.29862 0.29545,5.94791 1.1201,8.12643 1.64932,4.5356 5.4187,7.30502 11.07117,7.4219 5.18494,0 9.25302,-2.35384 11.19454,-6.06479 0.17856,-0.35389 0.0585,-0.64934 -0.23376,-0.82466 l -2.29865,-1.35386 c -0.35713,-0.23701 -0.58765,-0.12013 -0.82466,0.23376 -1.4123,2.71098 -3.94795,4.36029 -7.48034,4.2986 -4.36028,0 -7.24657,-2.2954 -8.0128,-5.71415 -0.29219,-0.87985 -0.35388,-2.35384 -0.35388,-4.17847 0,-0.17857 0.12013,-0.23701 0.23701,-0.23701 h 19.02551 c 0.35389,0 0.5909,-0.237 0.5909,-0.59089 0.0585,-2.94474 0,-4.41548 -0.23701,-6.00636 -0.8831,-6.36348 -4.47716,-10.36663 -11.84063,-10.36663 z m 40.88215,0 c -5.30182,0 -9.18809,3.23694 -10.48677,7.83098 -0.64933,2.0032 -0.82465,4.48042 -0.82465,7.54203 0,2.8863 0.17857,5.36026 0.70777,7.18814 1.47399,5.18169 5.94792,7.88942 10.83741,7.88942 3.71095,0 6.12648,-1.47074 7.71734,-3.53238 0.17857,-0.17533 0.29221,-0.11688 0.29221,0.0585 v 2.18176 c 0,6.65569 -3.59082,9.30498 -12.01271,8.89265 -0.35713,-0.0584 -0.64933,0.17532 -0.64933,0.52921 l -0.11688,2.71097 c 0,0.41233 0.17857,0.5909 0.58765,0.64933 9.4251,0.58766 16.37624,-2.65253 16.37624,-12.66528 v -28.21363 c 0,-0.35713 -0.23377,-0.59089 -0.58766,-0.59089 h -3.00642 c -0.35389,0 -0.58765,0.23376 -0.58765,0.58765 v 2.29865 c 0,0.17532 -0.11688,0.29219 -0.2922,0.11687 -1.711,-2.17852 -4.30184,-3.47394 -7.95435,-3.47394 z m 31.62911,0 c -6.18491,0 -10.54196,3.06162 -11.18804,7.4219 -0.0585,0.23376 0.17532,0.41233 0.52921,0.47077 l 3.18174,0.41232 c 0.35388,0.0585 0.58765,-0.12012 0.70453,-0.53245 0.53245,-2.5324 3.00317,-4.12328 6.77256,-4.12328 4.88949,0 6.89269,2.65253 6.89269,6.48037 v 2.2402 a 0.2532407,0.2532407 0 0 1 -0.23376,0.23376 h -6.83425 c -7.65566,0 -12.13282,3.65251 -12.13282,9.54523 0,6.18492 4.83105,8.5972 9.83742,8.5972 3.76614,0 7.06802,-1.23374 9.07121,-3.59407 0.17533,-0.17532 0.2922,-0.0552 0.2922,0.12012 v 2.41553 c 0,0.35389 0.23701,0.58765 0.5909,0.58765 h 3.00318 c 0.35713,0 0.59089,-0.23376 0.59089,-0.58765 v -19.79173 c 0,-5.83428 -3.88952,-9.89587 -11.07766,-9.89587 z m 78.81954,0 c -5.83427,0 -10.07443,3.35707 -11.36986,8.42188 -0.47076,1.82788 -0.59089,3.94795 -0.59089,6.83425 0,3.29862 0.29545,5.94791 1.1201,8.12643 1.64932,4.5356 5.42195,7.30502 11.07117,7.4219 5.18494,0 9.25303,-2.35384 11.19453,-6.06479 0.17857,-0.35389 0.0585,-0.64934 -0.237,-0.82466 l -2.2954,-1.35386 c -0.35389,-0.23701 -0.58765,-0.12013 -0.82466,0.23376 -1.4123,2.71098 -3.94795,4.36029 -7.48033,4.2986 -4.3603,0 -7.24658,-2.2954 -8.0128,-5.71415 -0.2922,-0.87985 -0.35389,-2.35384 -0.35389,-4.17847 0,-0.17857 0.12012,-0.23701 0.23701,-0.23701 h 19.02552 c 0.35713,0 0.59089,-0.237 0.59089,-0.59089 0.0585,-2.94474 0,-4.41548 -0.23701,-6.00636 -0.88309,-6.36348 -4.47716,-10.36663 -11.84062,-10.36663 z m -46.59628,0.0585 c -3.29862,0 -6.12648,1.11685 -7.88942,3.4155 -0.17857,0.17532 -0.2987,0.11688 -0.2987,-0.0584 v -2.35709 c 0,-0.35389 -0.23376,-0.58765 -0.58765,-0.58765 h -3.00642 c -0.35389,0 -0.58765,0.23376 -0.58765,0.58765 v 28.62918 c 0,0.35389 0.23376,0.58766 0.58765,0.58766 h 3.00642 c 0.35389,0 0.58765,-0.23377 0.58765,-0.58766 V 157.6267 c 0,-4.30184 2.71097,-6.95114 6.83425,-6.95114 4.06484,0 6.71412,2.70773 6.71412,7.06802 v 18.90863 c 0,0.35389 0.23702,0.58766 0.58766,0.58766 h 3.00642 c 0.35389,0 0.58765,-0.23377 0.58765,-0.58766 V 157.6267 c 0,-4.30184 2.82785,-6.95114 6.95112,-6.95114 4.00641,0 6.71414,2.70773 6.71414,7.06802 v 18.90863 c 0,0.35389 0.237,0.58766 0.59089,0.58766 h 2.94474 c 0.35388,0 0.59089,-0.23377 0.59089,-0.58766 V 156.9189 c 0,-6.18491 -3.7142,-9.89586 -9.54523,-9.89586 -3.83107,0 -7.24658,1.47074 -9.01277,4.83105 -0.11688,0.17532 -0.23376,0.17532 -0.2922,0 -1.47399,-3.1233 -4.48041,-4.83105 -8.48356,-4.83105 z m -141.84402,0.35389 c -0.35388,0 -0.58764,0.23375 -0.58764,0.58764 v 28.62919 c 0,0.35388 0.23376,0.58764 0.58764,0.58764 h 3.00643 c 0.35388,0 0.58765,-0.23376 0.58765,-0.58764 v -28.62919 c 0,-0.35389 -0.23701,-0.58765 -0.58765,-0.58765 z m 37.1095,3.24017 c 4.06484,0 6.77582,2.35385 7.54204,5.76935 0.23375,0.76621 0.35388,2.18176 0.41232,3.77264 0,0.17532 -0.12012,0.23376 -0.237,0.23376 h -15.25613 c -0.11688,0 -0.23701,-0.0585 -0.23701,-0.23376 0.0585,-1.59088 0.17856,-3.00643 0.47077,-4.0064 0.76621,-3.24018 3.36031,-5.53559 7.30501,-5.53559 z m 41.7068,0 c 3.94471,0 6.47712,2.53241 7.06801,5.71416 0.23376,1.17529 0.35389,1.88307 0.35389,5.9479 0,4.06484 -0.12013,4.82781 -0.29545,5.94791 -0.58764,3.06486 -3.00317,5.65572 -7.06801,5.65572 -3.88952,0 -6.59724,-2.53241 -7.4219,-5.71416 -0.2922,-0.82465 -0.52921,-2.71097 -0.52921,-5.9479 0,-3.18174 0.23377,-4.77262 0.58766,-5.89272 0.94153,-3.18174 3.41549,-5.71415 7.30501,-5.71415 z m 109.62076,0 c 4.06484,0 6.77581,2.35385 7.54202,5.76935 0.23377,0.76621 0.35064,2.18176 0.40909,3.77264 0,0.17532 -0.11688,0.23376 -0.23377,0.23376 H 306.9222 c -0.11689,0 -0.23701,-0.0585 -0.23701,-0.23376 0.0585,-1.59088 0.17857,-3.00643 0.47401,-4.0064 0.76297,-3.24018 3.35382,-5.53559 7.30178,-5.53559 z M 74.54139,162.87002 h 6.18491 c 0.11689,0 0.23702,0.11688 0.23702,0.23376 v 4.59404 c 0,4.12328 -4.181724,6.41868 -8.542005,6.41868 -3.652513,0 -6.480359,-1.64606 -6.480359,-5.24013 0,-3.83108 3.473938,-6.00635 8.603682,-6.00635 z m 161.57731,0 h 6.18491 c 0.11689,0 0.23376,0.11688 0.23376,0.23376 v 4.59404 c 0,4.12328 -4.18171,6.41868 -8.53875,6.41868 -3.65252,0 -6.48037,-1.64606 -6.48037,-5.24013 0,-3.83108 3.47394,-6.00635 8.60045,-6.00635 z"
       id="path7093"
       style="fill:#808080;stroke-width:3.24667" /><image
       width="335.5835"
       height="251.68759"
       preserveAspectRatio="none"
       xlink:href="screenshots/wide-main-menu.png"
       id="image3430"
       x="28.106747"
       y="222.9106"
       transform="rotate(1.525718)" /><image
       width="305.28659"
       height="228.96495"
       preserveAspectRatio="none"
       xlink:href="screenshots/wide-setup.png"
       id="image3799"
       x="713.36597"
       y="196.90273"
       transform="rotate(2.8789279)" /><image
       width="368.82941"
       height="276.62204"
       preserveAspectRatio="none"
       xlink:href="screenshots/wide-play-triangle.png"
       id="image3797"
       x="311.54825"
       y="209.36261"
       transform="rotate(-3.2669182)" /></g></svg>
